<svg width="49" height="49" viewBox="0 0 49 49" fill="none" xmlns="http://www.w3.org/2000/svg">
<rect x="0.5" y="0.5" width="48" height="48" rx="24" stroke="#DBDBDB" stroke-dasharray="4 4"/>
<g clip-path="url(#clip0_772_1196)">
<path d="M24 32C24 32.2652 24.1054 32.5196 24.2929 32.7071C24.4804 32.8946 24.7348 33 25 33C25.2652 33 25.5196 32.8946 25.7071 32.7071C25.8946 32.5196 26 32.2652 26 32V25H33C33.2652 25 33.5196 24.8946 33.7071 24.7071C33.8946 24.5196 34 24.2652 34 24C34 23.7348 33.8946 23.4804 33.7071 23.2929C33.5196 23.1054 33.2652 23 33 23H26V16C26 15.7348 25.8946 15.4804 25.7071 15.2929C25.5196 15.1054 25.2652 15 25 15C24.7348 15 24.4804 15.1054 24.2929 15.2929C24.1054 15.4804 24 15.7348 24 16V23H17C16.7348 23 16.4804 23.1054 16.2929 23.2929C16.1054 23.4804 16 23.7348 16 24C16 24.2652 16.1054 24.5196 16.2929 24.7071C16.4804 24.8946 16.7348 25 17 25H24V32Z" fill="#DBDBDB"/>
</g>
<defs>
<clipPath id="clip0_772_1196">
<rect width="24" height="24" fill="white" transform="translate(13 12)"/>
</clipPath>
</defs>
</svg>
