<svg width="35" height="35" viewBox="0 0 35 35" fill="none" xmlns="http://www.w3.org/2000/svg">
<path d="M14.4213 0.0774085C14.0179 0.235566 13.9222 0.529286 13.97 1.56107C13.9905 2.03554 14.0316 2.52508 14.0521 2.64558C14.0931 2.84892 14.0863 2.86399 13.9358 2.81127C13.2041 2.57027 12.322 2.72842 11.686 3.21043C10.9065 3.79787 10.544 4.66396 10.6124 5.79366C10.6466 6.39616 10.6398 6.45641 10.5304 6.45641C10.3047 6.45641 9.60035 6.90076 9.31314 7.2246C8.7524 7.87229 8.46519 8.82877 8.60196 9.64215C8.67034 10.0639 8.65666 10.1467 8.49938 10.1467C8.27372 10.1467 7.63776 10.5534 7.33003 10.8848C6.68723 11.6003 6.40686 12.7074 6.65304 13.6262C6.78297 14.1308 6.78297 14.1383 6.6804 14.1383C6.46157 14.1383 5.84612 14.5375 5.56575 14.8613C4.76567 15.7576 4.58788 17.0454 5.10075 18.16C5.20332 18.3935 5.59311 18.8981 6.08546 19.4479L6.89238 20.3592L3.64419 23.929C1.85256 25.8947 0.300263 27.6419 0.19085 27.8001C-0.0553289 28.1616 -0.0621672 28.4402 0.163497 28.734C0.368646 29.0051 0.642178 29.0879 0.922548 28.975C1.0388 28.9298 2.57742 27.288 4.54001 25.1265L7.966 21.3608L8.26688 21.5115C8.69769 21.7148 9.13534 21.7675 9.60035 21.6771C10.7765 21.4361 11.6382 20.4646 11.7339 19.2596C11.7749 18.8153 11.7749 18.8077 12.0006 18.7701C12.1305 18.7475 12.3357 18.7174 12.4588 18.6948C12.8417 18.627 13.3546 18.3182 13.6897 17.9416C14.141 17.4446 14.3598 16.9475 14.4555 16.1642L14.4966 15.8178L14.9069 15.7726C15.6796 15.6973 16.4865 15.0797 16.8489 14.2814C16.9447 14.0856 17.0541 13.6789 17.102 13.3852L17.184 12.858H17.4302C18.2576 12.8505 19.1671 12.1501 19.5774 11.2011C19.7689 10.7643 19.7894 10.6363 19.7894 10.0262C19.7894 9.37855 19.7757 9.30324 19.5296 8.78358L19.2697 8.22626L21.6494 5.62044C24.2001 2.8188 24.2753 2.75102 24.8361 2.87152C25.3695 2.98449 25.8413 3.59452 25.8413 4.17443C25.8413 4.69409 25.6567 4.95768 23.9266 6.87063C22.258 8.7158 22.217 8.76852 22.217 9.06977C22.217 9.5819 22.6752 9.93587 23.0992 9.75512C23.2017 9.71746 23.8924 9.01705 24.6446 8.19614C26.1285 6.57691 26.2653 6.47147 26.8397 6.56938C27.1748 6.6221 27.5577 6.93841 27.7287 7.29238C27.8449 7.54092 27.8518 8.0907 27.7492 8.39195C27.715 8.50492 27.0517 9.30324 26.279 10.1543C24.7882 11.8112 24.754 11.8639 24.9592 12.3609C25.0617 12.6095 25.4515 12.8128 25.6909 12.745C25.8003 12.7149 26.3063 12.2329 26.9081 11.5702C27.503 10.93 28.0501 10.4028 28.1937 10.335C28.8844 10.0187 29.7118 10.5082 29.8486 11.3292C29.9443 11.8789 29.7938 12.135 28.6724 13.3927C28.0706 14.0705 27.6056 14.6505 27.5782 14.7634C27.4551 15.3283 27.8996 15.8253 28.4057 15.6898C28.5014 15.6596 28.8707 15.3358 29.2194 14.9668C29.9033 14.2513 30.0879 14.1534 30.635 14.2362C31.4282 14.3492 31.8522 15.3961 31.4282 16.1944C31.2162 16.5785 24.33 24.1474 23.7556 24.6144C22.2512 25.842 20.6716 26.5273 18.8662 26.7156C18.3807 26.7683 18.1277 26.8286 18.0251 26.9189C17.9431 26.9942 16.466 28.6135 14.7496 30.5264C11.7407 33.8552 11.6176 34.0059 11.6176 34.277C11.6176 34.6912 11.9185 35 12.3083 35H12.6024L14.9411 32.4318L17.2729 29.8637L17.9157 30.2101C18.75 30.6544 19.4749 30.8578 20.4049 30.9105L21.1571 30.9482L23.0034 32.9741C24.8429 34.9849 24.8566 35 25.1438 35C25.6293 35 25.9507 34.5029 25.7798 34.036C25.7319 33.9155 24.8019 32.8385 23.7009 31.6335L21.7041 29.4419L20.7468 29.4043C19.7552 29.3666 19.174 29.2235 18.5654 28.8846L18.3055 28.734L18.5243 28.4854C18.7158 28.267 18.7979 28.2369 19.2287 28.1917C20.7263 28.0336 22.4974 27.3407 23.8308 26.3993C24.6925 25.7817 25.4789 24.9759 29.0348 21.0521C32.8232 16.8647 32.8301 16.8571 32.9463 15.9232C33.0967 14.658 32.4471 13.4003 31.4077 12.9258C31.0658 12.7676 31.0316 12.73 31.0658 12.5568C31.0863 12.4513 31.141 12.1802 31.182 11.9467C31.4077 10.6664 30.5939 9.24299 29.4314 8.86642L29.1579 8.77605V7.94008C29.1579 7.17188 29.1442 7.05891 28.9664 6.66729C28.857 6.42629 28.6382 6.07985 28.4672 5.89156C28.18 5.56019 27.4415 5.10078 27.2021 5.10078C27.1064 5.10078 27.0927 5.05559 27.1474 4.81459C27.2842 4.15937 27.1679 3.34599 26.8397 2.73595C26.5935 2.26901 26.0396 1.74935 25.5815 1.55354C25.0412 1.3276 24.1591 1.31254 23.7214 1.53095L23.4069 1.6891L23.0034 1.28241C22.7778 1.05648 22.3538 0.740162 22.0461 0.574474C21.0408 0.0397521 21.0271 0.0322208 17.6695 0.00962693C15.3924 -0.0129669 14.5991 0.00209564 14.4213 0.0774085ZM20.9041 1.66651C21.3349 1.81714 21.9845 2.23136 22.1965 2.47989L22.3469 2.66064L20.316 4.89743L18.285 7.13423L17.3823 6.1401L16.4728 5.13844L17.7379 5.16103C18.7842 5.18362 19.0372 5.16856 19.2287 5.06312C19.6321 4.85225 19.7484 4.29493 19.4543 3.94849C19.2355 3.6849 19.1671 3.67737 17.7721 3.65477C16.4181 3.62465 16.2403 3.57193 15.7685 2.99955C15.4471 2.60792 15.2009 1.7117 15.365 1.53095C15.3924 1.50082 16.5686 1.48576 17.9773 1.50082C20.1587 1.53095 20.5963 1.55354 20.9041 1.66651ZM13.6213 4.30246C13.9016 4.43803 18.285 9.28818 18.3807 9.56683C18.7568 10.6589 17.6627 11.7509 16.7259 11.2312C16.4386 11.0731 12.4109 6.66729 12.1579 6.238C11.5151 5.14597 12.5477 3.79033 13.6213 4.30246ZM11.6518 8.03045C11.8296 8.12083 12.575 8.89655 13.7785 10.2296C15.7822 12.4588 15.8437 12.5492 15.7548 13.2044C15.7069 13.5735 15.4197 13.9952 15.0983 14.1835C14.8522 14.3191 14.3461 14.3191 14.0589 14.1835C13.9358 14.1233 12.9853 13.1367 11.9459 11.9844C10.3115 10.1693 10.0448 9.83796 9.97646 9.5593C9.7166 8.45973 10.715 7.54845 11.6518 8.03045ZM9.62086 11.6982C9.86704 11.8036 12.322 14.417 12.7938 15.0647C13.4503 15.9609 12.9169 17.2412 11.8912 17.2412C11.7134 17.2412 11.4809 17.1885 11.3715 17.1282C11.0774 16.955 8.08225 13.6111 7.99335 13.3626C7.63092 12.2706 8.63615 11.2388 9.62086 11.6982ZM7.75401 15.6069C7.98651 15.6596 10.1132 17.9266 10.2979 18.3107C10.3526 18.4312 10.4004 18.6872 10.4004 18.883C10.4004 19.9224 9.37469 20.555 8.5746 20.0127C8.46519 19.9374 7.90445 19.35 7.33003 18.7174C6.46841 17.7533 6.28377 17.5048 6.21539 17.2337C6.03076 16.4655 6.42054 15.75 7.13172 15.5617C7.34371 15.509 7.3779 15.5166 7.75401 15.6069Z" fill="#FF00FF"/>
<path d="M30.6621 21.2328C30.2656 21.4738 30.163 22.0236 30.4502 22.3701C30.8945 22.8973 31.626 22.5584 31.6055 21.8429C31.5918 21.3308 31.0586 20.9918 30.6621 21.2328Z" fill="#FF00FF"/>
<path d="M29.194 19.9385C29.0367 20.1117 28.9957 20.2247 28.9957 20.4732C28.9957 20.7745 32.03 24.1324 32.8913 25.0964C33.3835 25.6537 33.8962 26.1583 34.0261 26.226C34.3269 26.3842 34.6072 26.3164 34.8328 26.0227C35.1746 25.5784 35.031 25.2395 34.0398 24.1851C33.0554 23.1458 29.9118 19.7201 29.6383 19.7201C29.4606 19.7201 29.3444 19.7803 29.194 19.9385Z" fill="#FF00FF"/>
</svg>
