<svg width="64" height="64" viewBox="0 0 64 64" fill="none" xmlns="http://www.w3.org/2000/svg">
<path d="M36.4198 18.4596C36.7386 17.8924 36.5965 17.2544 36.4902 16.8709C36.3827 16.4884 36.295 15.765 35.9226 15.127C35.7722 14.868 34.5754 14.0488 34.0435 13.8788C33.5117 13.7088 33.3638 13.8301 33.0624 13.8429C32.7059 13.8588 32.5376 13.4385 31.5258 13.481C30.5165 13.4385 30.0902 13.566 29.7715 13.694C29.4522 13.822 29.0797 14.0349 28.5478 14.2049C28.0154 14.3749 27.5366 15.2264 27.3779 15.4813C27.2179 15.7363 26.7392 16.0768 26.633 16.4598C26.5261 16.8422 26.5261 18.1187 26.633 18.4591C26.1011 18.6721 25.6755 20.501 27.3779 21.1814C27.7498 22.1604 29.1866 24.2877 31.5251 24.2877C33.8656 24.2877 35.3018 22.1604 35.6742 21.1814C37.3773 20.5015 36.951 18.6726 36.4198 18.4596Z" fill="black"/>
<path d="M38.1043 25.1525C36.2234 24.6994 35.5693 24.5545 35.2755 24.4024C35.0163 24.2673 34.6931 24.108 34.4154 24.0471C34.3981 24.0896 33.033 28.2588 32.768 29.2378C32.7149 29.1241 32.2886 26.4156 32.1472 25.962C32.2362 25.877 32.6253 25.1827 32.768 24.7992C32.6253 24.8274 32.1472 24.8704 31.5264 24.8694C30.9062 24.8704 30.4275 24.8274 30.2861 24.7992C30.4275 25.1822 30.8173 25.8765 30.9062 25.962C30.7648 26.4161 30.3392 29.1246 30.2861 29.2378C30.0198 28.2588 28.6547 24.0896 28.6368 24.0471C28.359 24.1085 28.0371 24.2673 27.7773 24.4024C27.4848 24.5545 26.8288 24.6994 24.9498 25.1525C23.0701 25.6067 20.0749 25.6635 20.2522 31.3928C24.7194 31.3928 31.5264 31.3928 31.5264 31.3928C31.5264 31.3928 38.3334 31.3928 42.8019 31.3928C42.9792 25.6635 39.9834 25.6067 38.1043 25.1525Z" fill="black"/>
<path d="M60.167 44.8246L44.8749 32.5903C47.2794 30.1855 48.5843 27.2205 48.5843 24.0968C48.5843 20.4544 46.8122 17.0301 43.593 14.4553C40.3738 11.8794 36.0941 10.4607 31.5411 10.4607C26.9888 10.4607 22.7085 11.8794 19.4893 14.4553C16.2701 17.0301 14.4966 20.4544 14.4966 24.0968C14.4966 27.7391 16.2701 31.1629 19.4893 33.7388C22.7085 36.3131 26.9888 37.7323 31.5411 37.7323C35.4477 37.7323 39.152 36.6879 42.1594 34.7633L57.4515 46.998L60.167 44.8246ZM20.1683 33.195C17.1296 30.7645 15.4573 27.5328 15.4573 24.0968C15.4573 20.6592 17.1296 17.4285 20.1683 14.998C23.2058 12.5676 27.2448 11.2287 31.5411 11.2287C35.8381 11.2287 39.8765 12.5676 42.9146 14.998C49.1866 20.0151 49.1866 28.1774 42.9146 33.195C39.8771 35.6255 35.8381 36.9649 31.5411 36.9649C27.2448 36.9649 23.2058 35.6255 20.1683 33.195Z" fill="black"/>
<path d="M59.7376 22.1169C59.9334 21.7702 59.8464 21.3791 59.7824 21.1446C59.7165 20.9101 59.6621 20.4672 59.4336 20.0771C59.3414 19.9183 58.6093 19.4161 58.2835 19.3121C57.959 19.2077 57.8694 19.2819 57.6819 19.2906C57.4643 19.3004 57.3606 19.0438 56.743 19.0684C56.1222 19.0433 55.8637 19.1212 55.6659 19.1985C55.4707 19.2778 55.2429 19.4069 54.9184 19.5113C54.5926 19.6152 54.3002 20.1365 54.1984 20.2936C54.105 20.4498 53.8093 20.6566 53.7453 20.8922C53.6794 21.1267 53.6794 21.9069 53.7453 22.1164C53.4189 22.2474 53.159 23.3682 54.1984 23.7844C54.4269 24.385 55.3088 25.687 56.743 25.687C58.1741 25.687 59.0554 24.385 59.2838 23.7844C60.3245 23.3687 60.0653 22.2484 59.7376 22.1169Z" fill="black"/>
<path d="M60.7699 26.2175C59.6186 25.9395 59.2173 25.8509 59.0394 25.7567C58.88 25.6753 58.681 25.5775 58.512 25.5396C58.4998 25.5667 57.664 28.1196 57.5027 28.7196C57.4701 28.649 57.2077 26.9911 57.1232 26.7136C57.1763 26.6604 57.4144 26.2344 57.5027 25.9999C57.4144 26.0178 57.1232 26.0434 56.743 26.0434C56.3603 26.0434 56.0685 26.0178 55.9814 25.9999C56.0691 26.2344 56.3078 26.6604 56.361 26.7136C56.2758 26.9911 56.016 28.649 55.9814 28.7196C55.8202 28.1196 54.983 25.5667 54.9722 25.5396C54.8026 25.5775 54.6067 25.6753 54.4474 25.7567C54.2669 25.8514 53.8662 25.9395 52.7149 26.2175C51.5635 26.4945 49.7267 26.5308 49.8355 30.0396C52.5728 30.0396 56.7437 30.0396 56.7437 30.0396C56.7437 30.0396 60.9114 30.0396 63.6493 30.0396C63.7542 26.5308 61.9232 26.4945 60.7699 26.2175Z" fill="black"/>
<path d="M9.9104 22.1169C10.1069 21.7702 10.0192 21.3791 9.9552 21.1446C9.88992 20.9101 9.83552 20.4672 9.60704 20.0771C9.51488 19.9183 8.78208 19.4161 8.45632 19.3121C8.13184 19.2077 8.0416 19.2819 7.85472 19.2906C7.63712 19.3004 7.53344 19.0438 6.91584 19.0684C6.29504 19.0433 6.03648 19.1212 5.83872 19.1985C5.64416 19.2778 5.41568 19.4069 5.0912 19.5113C4.76544 19.6152 4.47296 20.1365 4.3712 20.2936C4.27712 20.4498 3.98208 20.6566 3.91808 20.8922C3.85216 21.1267 3.85216 21.9069 3.91808 22.1164C3.59168 22.2474 3.3312 23.3682 4.3712 23.7844C4.59904 24.385 5.4816 25.687 6.91584 25.687C8.34624 25.687 9.22816 24.3855 9.45664 23.7844C10.4966 23.3687 10.2374 22.2484 9.9104 22.1169Z" fill="black"/>
<path d="M10.9427 26.2175C9.7907 25.9395 9.39006 25.8509 9.2115 25.7567C9.05214 25.6753 8.85374 25.5775 8.6835 25.5396C8.67198 25.5667 7.83614 28.1196 7.67486 28.7196C7.64286 28.649 7.37982 26.9911 7.29534 26.7136C7.34846 26.6604 7.58654 26.2344 7.67486 25.9999C7.58654 26.0178 7.29534 26.0434 6.91518 26.0434C6.53246 26.0434 6.24062 26.0178 6.15294 25.9999C6.24062 26.2344 6.47934 26.6604 6.53246 26.7136C6.44798 26.9911 6.1875 28.649 6.15294 28.7196C5.99166 28.1196 5.15518 25.5667 5.14366 25.5396C4.97406 25.5775 4.77822 25.6753 4.61886 25.7567C4.43774 25.8514 4.03774 25.9395 2.88574 26.2175C1.73502 26.4945 -0.101778 26.5308 0.00702183 30.0396C2.74366 30.0396 6.91518 30.0396 6.91518 30.0396C6.91518 30.0396 11.0822 30.0396 13.8201 30.0396C13.927 26.5308 12.0953 26.4945 10.9427 26.2175Z" fill="black"/>
</svg>
