<svg width="32" height="32" viewBox="0 0 32 32" fill="none" xmlns="http://www.w3.org/2000/svg">
<g clip-path="url(#clip0_393_1645)">
<path d="M14.6064 0L17.7648 0.008C19.0096 0.1584 20.1008 0.744 21 1.7328C21.7344 2.5392 22.12 3.4768 22.1424 4.4976H30.9024C31.1949 4.49929 31.4748 4.61701 31.6806 4.82491C31.8864 5.0328 32.0013 5.31388 32 5.6064C32.0006 5.75117 31.9727 5.89465 31.9179 6.02864C31.8631 6.16263 31.7824 6.28451 31.6805 6.38732C31.5786 6.49014 31.4574 6.57187 31.3239 6.62785C31.1904 6.68383 31.0472 6.71297 30.9024 6.7136L27.9648 6.712V25.3152C27.9648 29.384 26.4464 32 23.0992 32H8.6704C5.3232 32 3.8288 29.3984 3.8288 25.3152V6.712H1.0976C0.805782 6.71073 0.526372 6.5938 0.320623 6.38686C0.114874 6.17991 -0.000425132 5.89982 1.17799e-06 5.608C1.17799e-06 4.9952 0.491201 4.5008 1.0976 4.5008H9.8496C9.872 3.6784 10.1776 2.8448 10.736 2.0208C11.568 0.792 12.8672 0.1184 14.6064 0ZM25.7696 6.712H6.0224V25.3152C6.0224 28.336 6.8544 29.7856 8.6704 29.7856H23.0992C24.9216 29.7856 25.7712 28.3232 25.7712 25.3152L25.7696 6.712ZM10.7456 10.144C11.3504 10.144 11.8416 10.64 11.8416 11.2512V24.1312C11.8422 24.276 11.8143 24.4194 11.7595 24.5534C11.7047 24.6874 11.624 24.8093 11.5221 24.9121C11.4202 25.0149 11.299 25.0967 11.1655 25.1527C11.032 25.2086 10.8888 25.2378 10.744 25.2384C10.4519 25.2367 10.1724 25.1192 9.96692 24.9116C9.76143 24.704 9.64672 24.4233 9.648 24.1312V11.2512C9.648 10.64 10.1408 10.144 10.7456 10.144ZM15.1072 10.144C15.7152 10.144 16.2048 10.64 16.2048 11.2512V24.1312C16.2054 24.276 16.1775 24.4194 16.1227 24.5534C16.0679 24.6874 15.9872 24.8093 15.8853 24.9121C15.7834 25.0149 15.6622 25.0967 15.5287 25.1527C15.3952 25.2086 15.252 25.2378 15.1072 25.2384C14.8151 25.2367 14.5356 25.1192 14.3301 24.9116C14.1246 24.704 14.0099 24.4233 14.0112 24.1312V11.2512C14.0112 10.64 14.5024 10.144 15.1072 10.144ZM19.472 10.144C20.0768 10.144 20.568 10.64 20.568 11.2512V24.1312C20.5693 24.4233 20.4546 24.704 20.2491 24.9116C20.0436 25.1192 19.7641 25.2367 19.472 25.2384C19.3272 25.2378 19.184 25.2086 19.0505 25.1527C18.917 25.0967 18.7958 25.0149 18.6939 24.9121C18.592 24.8093 18.5113 24.6874 18.4565 24.5534C18.4017 24.4194 18.3738 24.276 18.3744 24.1312V11.2512C18.3735 10.959 18.4886 10.6783 18.6944 10.4707C18.9001 10.2632 19.1798 10.1457 19.472 10.144ZM14.6816 2.2112C13.6544 2.2832 12.9776 2.6336 12.5472 3.2704C12.2304 3.736 12.072 4.1392 12.0464 4.4992L19.9472 4.4976C19.9248 4.032 19.7408 3.6224 19.384 3.2304C18.8304 2.6224 18.216 2.2928 17.6352 2.2144L14.6816 2.2112Z" fill="black"/>
</g>
<defs>
<clipPath id="clip0_393_1645">
<rect width="32" height="32" fill="white"/>
</clipPath>
</defs>
</svg>
