<svg width="36" height="36" viewBox="0 0 36 36" fill="none" xmlns="http://www.w3.org/2000/svg">
<path d="M9.17178 0.977106C7.4059 1.23548 5.96855 1.80704 4.67494 2.77792C2.65581 4.27337 1.21162 6.42652 0.492952 8.99463C-0.800659 13.6219 0.479263 18.3902 4.51067 23.9492C5.2841 25.0218 7.85763 27.9893 8.96644 29.0854C10.9034 31.0193 13.0321 32.8671 15.2292 34.5426C17.2278 36.0616 17.4468 36.1712 18.0354 35.858C18.4803 35.6231 21.1428 33.5639 22.5049 32.3895C24.9757 30.2677 26.7348 28.5217 28.6444 26.2902C32.2857 22.0388 34.2569 18.304 34.8797 14.5145C35.0508 13.4653 35.0508 11.4453 34.8797 10.4431C34.0652 5.69836 31.0331 2.17504 26.8717 1.14936C25.9476 0.922298 24.0312 0.90664 23.1003 1.11804C21.2181 1.54084 19.5754 2.47256 18.1244 3.9367L17.5221 4.53958L16.8924 3.90538C16.5433 3.56088 16.0437 3.11459 15.7836 2.91102C14.6884 2.07325 13.2169 1.38425 11.9301 1.12587C11.3346 1.0006 9.6372 0.914469 9.17178 0.977106ZM11.1225 3.52173C13.2579 3.8584 15.0033 5.00936 16.4406 7.01374C16.8718 7.61662 17.1388 7.82019 17.5221 7.82019C17.9054 7.82019 18.1791 7.61662 18.5898 7.0294C19.4454 5.80015 20.3352 4.97804 21.5056 4.33601C25.4617 2.16721 30.1639 4.07763 32.0666 8.61881C33.8462 12.8703 32.6005 17.5602 28.2063 23.1975C25.886 26.1728 21.9436 29.9467 18.1244 32.8358L17.5221 33.2899L16.5501 32.5383C10.1985 27.6682 5.31148 22.1171 3.35395 17.5681C1.92345 14.2405 1.82079 11.3279 3.04595 8.4857C3.50453 7.42088 3.92205 6.77885 4.75023 5.88627C6.45451 4.05414 8.85693 3.16157 11.1225 3.52173Z" fill="#F54438"/>
</svg>
