<svg width="35" height="36" viewBox="0 0 35 36" fill="none" xmlns="http://www.w3.org/2000/svg">
<path d="M19.8476 1.04798C18.9449 1.21206 18.9063 1.23941 14.2073 5.38256C10.5808 8.58905 9.79378 9.25223 9.82464 9.08131C10.0947 7.61138 9.79378 6.64054 8.837 5.84746C8.13485 5.27317 7.68732 5.12275 6.63024 5.12275C5.5963 5.12275 5.12563 5.27317 4.46206 5.81328C3.95281 6.23716 3.66732 6.62003 3.49757 7.11912C3.42812 7.31055 3.21208 9.30692 2.96517 11.987C2.73369 14.4893 2.50993 16.7318 2.46363 16.9779C2.23987 18.1812 1.63031 19.2751 0.611805 20.2938C0.0176776 20.8886 -0.105778 21.2578 0.0794051 21.8663C0.148849 22.085 0.434338 22.379 1.50685 23.343L2.84943 24.5395L2.64881 24.7104C2.21672 25.0659 2.02382 25.6129 2.16271 26.112C2.24758 26.4333 2.47906 26.6452 7.4327 31.055C10.9666 34.2 12.7104 35.6973 12.9187 35.7861C13.5746 36.0596 14.161 35.9092 14.9712 35.2665C15.8199 34.5897 16.3755 34.3162 17.9958 33.7624C20.6038 32.8805 23.2658 31.4379 26.005 29.4142C27.3167 28.4502 34.2147 22.3585 34.5465 21.8799C34.9169 21.3398 35.0789 20.5878 34.9632 19.9793C34.7394 18.817 33.8135 17.894 32.5712 17.6001L32.2472 17.518L32.6793 17.0599C33.2117 16.5062 33.4431 16.0754 33.5589 15.4396C33.7749 14.2637 33.0419 12.9988 31.8382 12.4656C31.5759 12.3493 31.2364 12.2399 31.0743 12.2194L30.7811 12.1716L31.0126 11.9186C31.5604 11.3033 31.8151 10.4487 31.6916 9.64193C31.5219 8.52068 30.4648 7.51566 29.1917 7.2627C28.8522 7.19433 28.7827 7.15331 28.8213 7.07126C29.1762 6.34655 29.2611 5.54664 29.045 4.89714C28.775 4.09039 27.9648 3.34517 27.008 3.02383C26.1361 2.72985 24.9093 2.85975 24.1068 3.33833C23.9525 3.43405 23.8214 3.50925 23.8059 3.50925C23.7905 3.50925 23.7596 3.39302 23.7288 3.24945C23.613 2.5726 22.8337 1.67013 22.0776 1.32829C21.3908 1.02063 20.5961 0.918076 19.8476 1.04798ZM21.414 2.33331C22.1084 2.64781 22.4788 3.19476 22.4865 3.88528C22.4865 4.28182 22.4479 4.42539 22.2705 4.71254C22.1161 4.95183 20.5729 6.36023 16.9542 9.56672C12.0623 13.8945 11.8616 14.0586 11.9002 13.7987C12.0237 13.033 12.0468 12.0553 11.9542 11.7067C11.8154 11.1939 11.5376 10.7222 11.1441 10.353L10.8046 10.0316L15.0638 6.26451C19.0143 2.77087 19.5236 2.35382 20.056 2.20341C20.3646 2.11453 21.0822 2.1829 21.414 2.33331ZM26.4679 4.09722C26.7843 4.17927 26.9772 4.28866 27.2858 4.56897C27.7102 4.95867 27.8491 5.24582 27.8491 5.75858C27.8491 6.34655 27.7102 6.57217 26.8923 7.32423L26.1207 8.02843L26.0204 7.67975C25.7426 6.70891 24.9016 5.94318 23.7982 5.66287L23.3584 5.54664L23.9602 4.99969C24.7087 4.32968 24.9247 4.1861 25.3723 4.08355C25.8506 3.96732 25.9741 3.96732 26.4679 4.09722ZM7.26295 6.32604C7.67189 6.43543 8.28145 6.92769 8.44349 7.28321C8.59009 7.5977 8.62095 8.21302 8.52064 9.01294L8.47435 9.44366L8.1117 9.48468C6.97746 9.62142 5.84321 10.5717 5.55772 11.652C5.51143 11.8161 5.27995 14.0312 5.04847 16.5677C4.74755 19.8015 4.5778 21.3467 4.46978 21.75C4.33089 22.2765 3.73676 23.5413 3.62874 23.5413C3.53615 23.5413 1.30624 21.5176 1.30624 21.4355C1.30624 21.3808 1.48371 21.1689 1.69975 20.957C2.7414 19.9451 3.52071 18.5162 3.76763 17.1488C3.81392 16.8822 4.0454 14.6192 4.27688 12.11C4.54693 9.12233 4.73212 7.4678 4.80156 7.31739C5.18736 6.5038 6.27531 6.05941 7.26295 6.32604ZM23.7596 6.85932C24.4463 7.16698 24.8399 7.7276 24.8399 8.39762C24.8399 9.14967 24.8707 9.11549 20.6347 12.8758C18.4974 14.7764 16.7073 16.4104 16.6687 16.513C16.5221 16.8685 16.8307 17.2514 17.2705 17.2514C17.5329 17.2514 17.8029 17.0189 22.4093 12.9578C25.6269 10.1137 27.3784 8.6164 27.579 8.52752C28.0265 8.33609 28.937 8.34976 29.3614 8.54803C29.7703 8.73946 30.187 9.17018 30.3027 9.51887C30.4416 9.92224 30.4108 10.476 30.2333 10.8247C30.1176 11.0572 28.937 12.1442 25.2257 15.4396C20.5807 19.5622 20.3646 19.7605 20.3646 19.9998C20.3646 20.3348 20.7427 20.6356 21.0899 20.5741C21.2751 20.5399 22.2242 19.74 25.2257 17.0873C27.9262 14.7012 29.2302 13.5936 29.4694 13.4843C29.971 13.2586 30.6885 13.2723 31.2132 13.5116C31.8922 13.8193 32.2626 14.332 32.2703 14.9952C32.2857 15.7541 32.4092 15.6242 28.1191 19.4392C25.3105 21.9278 24.1377 23.0217 24.0991 23.1584C23.9911 23.555 24.4386 23.9515 24.8862 23.8558C25.0405 23.8216 25.9741 23.049 27.9262 21.3261C30.974 18.6461 30.92 18.6803 31.7533 18.6871C32.5018 18.694 33.0882 19.0084 33.4431 19.5896C33.7363 20.0613 33.7518 20.6835 33.4971 21.1552C33.3737 21.374 32.3629 22.3175 29.8012 24.5737C27.8568 26.2829 25.8738 27.9853 25.3877 28.3476C22.7025 30.3782 20.1331 31.7797 17.3245 32.7506C16.7381 32.9488 16.0823 33.195 15.8585 33.2975C15.2798 33.5573 14.4311 34.0906 14.0375 34.4461C13.8524 34.617 13.644 34.7538 13.5746 34.7538C13.5129 34.7538 11.1826 32.7437 8.41262 30.2825C3.7059 26.112 3.37411 25.7975 3.47442 25.6744C3.53615 25.606 3.81392 25.2915 4.09169 24.9839C4.60866 24.4164 5.18736 23.5208 5.46513 22.8576C5.84321 21.9551 5.92809 21.3808 6.36018 16.6702C6.59938 14.1132 6.83085 11.9049 6.87715 11.7614C6.98517 11.4332 7.48671 10.9273 7.85707 10.7632C8.75984 10.353 9.84779 10.6333 10.4111 11.4195C10.7197 11.8502 10.7506 12.11 10.6117 13.5595C10.4188 15.549 10.4419 15.7267 10.928 15.9455C11.391 16.1575 11.2058 16.301 16.6995 11.4469C21.4834 7.21484 21.9001 6.85932 22.255 6.7636C22.7257 6.6337 23.343 6.67472 23.7596 6.85932Z" fill="#4EAF51"/>
</svg>
