<svg width="35" height="35" viewBox="0 0 35 35" fill="none" xmlns="http://www.w3.org/2000/svg">
<path d="M17.5 2.1875C13.4389 2.1875 9.54408 3.80078 6.67243 6.67243C3.80078 9.54408 2.1875 13.4389 2.1875 17.5V19.6875H6.59778C6.88786 19.6875 7.16606 19.8027 7.37118 20.0079C7.5763 20.213 7.69153 20.4912 7.69153 20.7812V33.9062C7.69153 34.1963 7.5763 34.4745 7.37118 34.6796C7.16606 34.8848 6.88786 35 6.59778 35H5.50403C4.34371 35 2.10188 34.5391 1.28141 33.7186C0.460936 32.8981 0 31.7853 0 30.625V17.5C0 12.8587 1.84374 8.40752 5.12563 5.12563C8.40752 1.84374 12.8587 0 17.5 0C22.1413 0 26.5925 1.84374 29.8744 5.12563C33.1563 8.40752 35 12.8587 35 17.5V30.625C35 31.7853 34.5391 32.8981 33.7186 33.7186C32.8981 34.5391 30.6563 35 29.496 35H28.4022C28.1121 35 27.8339 34.8848 27.6288 34.6796C27.4237 34.4745 27.3085 34.1963 27.3085 33.9062V20.7812C27.3085 20.4912 27.4237 20.213 27.6288 20.0079C27.8339 19.8027 28.1121 19.6875 28.4022 19.6875H32.8125V17.5C32.8125 13.4389 31.1992 9.54408 28.3276 6.67243C25.4559 3.80078 21.5611 2.1875 17.5 2.1875Z" fill="#D88100"/>
</svg>
