<svg width="35" height="35" viewBox="0 0 35 35" fill="none" xmlns="http://www.w3.org/2000/svg">
<path d="M17.7544 0.0418003C16.5361 0.281568 15.9432 1.25718 15.5128 3.75407C14.7737 8.05336 13.9371 10.327 12.3534 12.3857C11.6468 13.3034 10.0305 14.8661 9.9168 14.7421C9.90056 14.7255 9.81122 14.5602 9.72187 14.37C9.63253 14.1881 9.40512 13.8987 9.21832 13.7251C8.56045 13.1216 8.66603 13.1381 4.99495 13.1381C1.81118 13.1381 1.68935 13.1464 1.33199 13.3117C0.860918 13.5349 0.438581 13.9649 0.194925 14.4692L0 14.8743V23.721V32.5676L0.227412 33.0388C0.471068 33.5432 0.747212 33.8243 1.29138 34.1219C1.61625 34.3038 1.68123 34.3038 4.95434 34.3038C8.17872 34.3038 8.29243 34.2955 8.65791 34.1302C9.12086 33.907 9.55944 33.4688 9.75436 33.0306C9.83558 32.8404 9.92492 32.6916 9.94929 32.6916C9.98177 32.6916 10.3879 32.8735 10.8508 33.0967C12.5808 33.9235 14.9848 34.6345 16.9097 34.8826C17.8031 34.9983 18.8346 35.0149 24.2438 34.99C31.2692 34.9652 30.7981 34.9983 31.6996 34.37C32.52 33.7995 33.0966 32.6668 33.0966 31.6168C33.0966 31.129 32.8367 30.0955 32.6905 30.0045C32.5281 29.9053 32.6174 29.8144 33.121 29.5663C34.0712 29.0868 34.7941 28.0947 34.9646 27.0364C35.1108 26.1269 34.7941 25.0355 34.1931 24.3576L33.8926 24.0186L34.1768 23.6631C35.257 22.3237 35.2651 20.4303 34.1931 19.2315L33.8926 18.8843L34.1849 18.537C35.8499 16.561 34.7941 13.4936 32.2925 13.0141C32.0245 12.9645 29.8966 12.9314 26.8753 12.9314C22.9362 12.9314 21.8884 12.9066 21.8884 12.8239C21.8884 12.7743 22.1402 11.7574 22.4488 10.5751C23.1961 7.69784 23.2204 7.59036 23.2123 6.39979C23.2042 5.58127 23.1636 5.20094 23.0011 4.56432C22.6194 3.0761 21.7828 1.69537 20.8082 0.951264C19.8905 0.248496 18.6397 -0.131825 17.7544 0.0418003ZM19.1026 1.869C20.4184 2.36507 21.3768 3.91943 21.596 5.94505C21.6935 6.76357 21.5229 7.70611 20.7432 10.6577C20.3372 12.2038 20.0042 13.6094 19.996 13.7747C19.9879 14.0145 20.0366 14.1385 20.2072 14.3121L20.4265 14.5436L26.2986 14.585L32.1626 14.6263L32.5443 14.8578C33.657 15.5192 33.6489 17.1728 32.5281 17.8094C32.1707 18.0079 32.122 18.0161 30.0265 18.0575L27.8824 18.0988L27.6874 18.3303C27.4763 18.5783 27.4275 19.0165 27.5737 19.2976C27.7524 19.6366 27.9392 19.6697 30.1484 19.711L32.2682 19.7524L32.6255 20.0004C33.5189 20.6453 33.6327 21.869 32.8692 22.6296C32.3738 23.1257 32.057 23.1835 29.8722 23.1835H27.9636L27.7281 23.4233C27.4032 23.754 27.4032 24.1592 27.7281 24.5229L27.9636 24.7958L30.1078 24.8371C32.4875 24.8867 32.5362 24.895 33.0073 25.4737C33.6733 26.3005 33.3728 27.6234 32.4144 28.0698C32.122 28.2021 31.854 28.2269 30.1484 28.2269C28.5646 28.2269 28.1585 28.2517 27.9392 28.351C27.4438 28.599 27.3382 29.2356 27.7281 29.6407C27.9636 29.8805 27.9798 29.8805 28.9138 29.8805C30.0347 29.8805 30.457 29.9715 30.8631 30.3187C31.8702 31.162 31.5291 32.8983 30.2783 33.2703C30.059 33.3365 28.1017 33.353 23.5128 33.3282C16.5118 33.2951 16.9016 33.3199 14.9117 32.8073C13.2793 32.3939 11.3544 31.6085 10.3391 30.9388L9.94929 30.6908V23.7706V16.8504L10.8427 16.1641C12.6782 14.7751 14.0346 13.1464 15.0173 11.1951C15.9432 9.35141 16.4874 7.53248 17.0072 4.58086C17.397 2.3816 17.592 1.84419 18.0712 1.6623C18.2336 1.60443 18.5828 1.67057 19.1026 1.869ZM8.11374 14.9239L8.32491 15.0893V23.721V32.3526L8.11374 32.518C7.90258 32.6833 7.80511 32.6916 4.98683 32.6916H2.0792L1.85179 32.4932L1.62437 32.2947V23.721V15.1472L1.85179 14.9488L2.0792 14.7503H4.98683C7.80511 14.7503 7.90258 14.7586 8.11374 14.9239Z" fill="#2295F1"/>
</svg>
