<svg width="35" height="35" viewBox="0 0 35 35" fill="none" xmlns="http://www.w3.org/2000/svg">
<path d="M30.675 31.5071L25.39 29.6358L24.465 30.1269C22.34 31.2523 19.9775 31.8522 17.5 31.8522C9.225 31.8522 2.5 24.935 2.5 17.2533C2.5 9.57159 9.225 2.65435 17.5 2.65435C25.775 2.65435 32.5 9.57159 32.5 17.2533C32.5 20.12 31.525 23.0291 29.7325 25.5163L28.87 26.7107L30.6775 31.5045L30.675 31.5071ZM32.4425 34.9312C32.6687 35.0117 32.9119 35.0218 33.1434 34.9602C33.3748 34.8987 33.5848 34.7681 33.7486 34.5838C33.9124 34.3996 34.0231 34.1695 34.0676 33.9206C34.1122 33.6717 34.0887 33.4145 34 33.1794L31.72 27.1275C33.8 24.2342 35 20.7729 35 17.2533C35 8.45676 27.5 0 17.5 0C7.5 0 0 8.45676 0 17.2533C0 26.0498 7.5 34.5066 17.5 34.5066C20.3046 34.515 23.0722 33.8278 25.5825 32.4999L32.4425 34.9286V34.9312Z" fill="#FFC700"/>
<path d="M17.5 19.3768C17.2374 19.3768 16.9773 19.3219 16.7346 19.2151C16.492 19.1084 16.2715 18.952 16.0858 18.7548C15.9001 18.5576 15.7527 18.3236 15.6522 18.0659C15.5517 17.8083 15.5 17.5322 15.5 17.2533C15.5 16.9744 15.5517 16.6983 15.6522 16.4407C15.7527 16.183 15.9001 15.949 16.0858 15.7518C16.2715 15.5546 16.492 15.3982 16.7346 15.2915C16.9773 15.1847 17.2374 15.1298 17.5 15.1298C18.0304 15.1298 18.5391 15.3535 18.9142 15.7518C19.2893 16.15 19.5 16.6901 19.5 17.2533C19.5 17.8165 19.2893 18.3566 18.9142 18.7548C18.5391 19.1531 18.0304 19.3768 17.5 19.3768ZM25 19.3768C24.7374 19.3768 24.4773 19.3219 24.2346 19.2151C23.992 19.1084 23.7715 18.952 23.5858 18.7548C23.4001 18.5576 23.2528 18.3236 23.1522 18.0659C23.0517 17.8083 23 17.5322 23 17.2533C23 16.9744 23.0517 16.6983 23.1522 16.4407C23.2528 16.183 23.4001 15.949 23.5858 15.7518C23.7715 15.5546 23.992 15.3982 24.2346 15.2915C24.4773 15.1847 24.7374 15.1298 25 15.1298C25.5304 15.1298 26.0391 15.3535 26.4142 15.7518C26.7893 16.15 27 16.6901 27 17.2533C27 17.8165 26.7893 18.3566 26.4142 18.7548C26.0391 19.1531 25.5304 19.3768 25 19.3768ZM10 19.3768C9.73736 19.3768 9.47728 19.3219 9.23463 19.2151C8.99198 19.1084 8.7715 18.952 8.58579 18.7548C8.40007 18.5576 8.25275 18.3236 8.15224 18.0659C8.05173 17.8083 8 17.5322 8 17.2533C8 16.9744 8.05173 16.6983 8.15224 16.4407C8.25275 16.183 8.40007 15.949 8.58579 15.7518C8.7715 15.5546 8.99198 15.3982 9.23463 15.2915C9.47728 15.1847 9.73736 15.1298 10 15.1298C10.5304 15.1298 11.0391 15.3535 11.4142 15.7518C11.7893 16.15 12 16.6901 12 17.2533C12 17.8165 11.7893 18.3566 11.4142 18.7548C11.0391 19.1531 10.5304 19.3768 10 19.3768Z" fill="#FFC700"/>
</svg>
