<svg width="64" height="64" viewBox="0 0 64 64" fill="none" xmlns="http://www.w3.org/2000/svg">
<path d="M47.9086 14.6471L45.9295 15.9418C42.3989 12.9407 37.5103 11.2353 32.3165 11.2353C22.004 11.2353 13.6144 17.9476 13.6144 26.197C13.6144 34.4486 22.004 41.1597 32.3165 41.1597C42.6289 41.1597 51.02 34.4486 51.02 26.197C51.02 24.441 50.6423 22.721 49.8989 21.0848C49.6499 20.5374 48.8939 20.2549 48.2096 20.4541C47.5239 20.6533 47.1722 21.2587 47.4198 21.8067C48.0584 23.2099 48.3826 24.688 48.3826 26.197C48.3826 33.2851 41.1745 39.0498 32.3165 39.0498C23.4578 39.0498 16.2518 33.2851 16.2518 26.197C16.2518 19.1111 23.4578 13.3452 32.3165 13.3452C36.7156 13.3452 40.8573 14.7704 43.8787 17.2814L32.3657 24.8056L28.8478 22.2264C28.3119 21.8343 27.4778 21.8618 26.9848 22.2923C26.4925 22.7221 26.5305 23.3888 27.0657 23.7821L32.2666 27.594L49.5775 16.281C50.1429 15.9131 50.2252 15.248 49.7653 14.7962C49.3032 14.345 48.474 14.2792 47.9086 14.6471Z" fill="black"/>
<path d="M33.6352 15.9834V15.4669C33.6352 14.8834 33.0444 14.412 32.3165 14.412C31.5886 14.412 30.9978 14.8834 30.9978 15.4669V15.9834C30.9978 16.5657 31.5886 17.0383 32.3165 17.0383C33.0444 17.0383 33.6352 16.5657 33.6352 15.9834Z" fill="black"/>
<path d="M30.9978 36.4111V36.9276C30.9978 37.5099 31.5886 37.9825 32.3165 37.9825C33.0444 37.9825 33.6352 37.5099 33.6352 36.9276V36.4111C33.6352 35.8288 33.0444 35.3561 32.3165 35.3561C31.5886 35.3561 30.9978 35.8288 30.9978 36.4111Z" fill="black"/>
<path d="M45.0841 25.1431C44.3562 25.1431 43.7655 25.6146 43.7655 26.1981C43.7655 26.7804 44.3562 27.253 45.0841 27.253H45.7298C46.4577 27.253 47.0484 26.7804 47.0484 26.1981C47.0484 25.6146 46.4577 25.1431 45.7298 25.1431H45.0841Z" fill="black"/>
<path d="M18.9032 25.1431C18.1753 25.1431 17.5845 25.6146 17.5845 26.1981C17.5845 26.7804 18.1753 27.253 18.9032 27.253H19.5502C20.2782 27.253 20.8689 26.7804 20.8689 26.1981C20.8689 25.6146 20.2782 25.1431 19.5502 25.1431H18.9032Z" fill="black"/>
</svg>
