<svg width="64" height="64" viewBox="0 0 64 64" fill="none" xmlns="http://www.w3.org/2000/svg">
<path d="M53.853 31.0202C53.3752 30.3615 52.5907 29.8811 51.6711 29.684C50.7516 29.4869 49.7719 29.5893 48.9465 29.9687L41.4585 33.426C40.8778 33.7152 40.2696 33.9674 39.6396 34.1806C39.9131 33.9059 40.1129 33.5891 40.2264 33.2498C40.445 32.5879 40.3273 31.8836 39.8989 31.2909C39.4704 30.6982 38.7661 30.2653 37.9399 30.0867L27.8454 27.9223C24.8738 27.2837 23.55 27.911 21.3558 28.9495C21.0904 29.0757 20.8088 29.2088 20.5063 29.3484L17.1379 30.9048L15.9522 29.2648C15.8669 29.1472 15.7269 29.0614 15.5628 29.0262C15.3987 28.9909 15.2238 29.0091 15.0764 29.0767L9.99141 31.4206C9.84453 31.4889 9.73738 31.6009 9.69333 31.7322C9.64928 31.8634 9.67192 32.0033 9.75629 32.1213L18.3848 44.08C18.4269 44.1384 18.4829 44.1896 18.5496 44.2306C18.6164 44.2717 18.6926 44.3018 18.774 44.3193C18.8553 44.3368 18.9402 44.3412 19.0237 44.3324C19.1072 44.3236 19.1877 44.3018 19.2606 44.2681L24.3443 41.9231C24.4173 41.8895 24.4813 41.8447 24.5327 41.7912C24.584 41.7378 24.6216 41.6767 24.6434 41.6116C24.6862 41.4795 24.662 41.3392 24.576 41.2214L23.3903 39.5776L24.8051 38.9265L34.5485 41.3259C34.6159 41.3432 34.692 41.3642 34.7722 41.3874C35.3013 41.5564 35.8651 41.6452 36.4349 41.6493C37.7121 41.6007 38.9503 41.2821 40.0236 40.7261L40.7262 40.4027C44.6592 38.5843 48.5958 36.7657 52.5359 34.947C53.3592 34.5643 53.9598 33.9365 54.2065 33.2008C54.4533 32.4651 54.3262 31.6812 53.853 31.0202ZM19.1757 43.1222L11.1892 32.055L15.164 30.2225L16.3362 31.8518C16.3378 31.8567 16.3398 31.8616 16.3422 31.8663L21.9574 39.6487C21.9628 39.6563 21.9709 39.6617 21.9763 39.6687L23.1471 41.2914L19.1757 43.1222ZM51.8959 34.0561C47.9544 35.8752 44.0172 37.6938 40.0842 39.5118L39.3822 39.8352C36.9994 40.9336 35.9195 40.6237 35.2054 40.4194C35.105 40.3903 35.0127 40.3655 34.9265 40.3424L24.9182 37.8783C24.8339 37.858 24.7453 37.8517 24.6577 37.8595C24.5702 37.8674 24.4856 37.8894 24.4089 37.9241L23.7231 38.2405L23.4981 38.3445L22.7523 38.6878L17.7785 31.7947L21.1469 30.2376C21.4535 30.0964 21.7384 29.9612 22.0086 29.8329C24.1037 28.8407 25.0624 28.388 27.5106 28.9134L37.6037 31.0773C38.1018 31.1849 38.5265 31.4457 38.7851 31.8028C39.0437 32.1599 39.1152 32.5844 38.9841 32.9836C38.861 33.3488 38.5753 33.6655 38.1807 33.8739C37.7862 34.0824 37.31 34.1682 36.8418 34.1154L35.6096 33.855L35.6049 33.8701L28.862 32.4263C28.7797 32.4065 28.6933 32.4001 28.6079 32.4076C28.5225 32.415 28.4398 32.436 28.3647 32.4695C28.2897 32.5029 28.2238 32.5481 28.1709 32.6023C28.1181 32.6565 28.0794 32.7186 28.0571 32.785C28.0348 32.8514 28.0294 32.9207 28.0412 32.9887C28.053 33.0568 28.0818 33.1223 28.1258 33.1813C28.1699 33.2404 28.2282 33.2917 28.2975 33.3324C28.3668 33.373 28.4456 33.4021 28.5292 33.418L36.2685 35.0768C36.3493 35.0941 36.4315 35.0973 36.513 35.1092L37.5175 35.3215C39.1916 35.6724 40.7397 34.9513 42.1053 34.3137L49.5892 30.8585C49.8517 30.7373 50.1414 30.6587 50.4418 30.6271C50.7422 30.5955 51.0475 30.6116 51.3402 30.6743C51.6328 30.7371 51.9072 30.8454 52.1476 30.993C52.3879 31.1406 52.5896 31.3247 52.7411 31.5346C52.8925 31.7446 52.9908 31.9763 53.0303 32.2167C53.0698 32.457 53.0497 32.7012 52.9712 32.9354C52.8928 33.1695 52.7574 33.389 52.5729 33.5813C52.3884 33.7736 52.1584 33.9349 51.8959 34.0561ZM30.367 21.5859L29.5074 22.9473L32.4911 25.337L34.1888 24.645C35.1385 25.101 36.168 25.4411 37.2433 25.6539L37.8267 27.1042H42.0601L42.6442 25.6539C43.7184 25.4404 44.7465 25.099 45.694 24.6412L47.3964 25.3348L50.3801 22.9451L49.5198 21.5843C50.0905 20.8255 50.5163 20.0028 50.783 19.1434L52.5939 18.6729V15.2948L50.783 14.8237C50.5166 13.9646 50.0908 13.1422 49.5198 12.3839L50.3808 11.0225L47.3964 8.63285L45.6947 9.32701C44.7471 8.86882 43.7188 8.52725 42.6442 8.31379L42.0608 6.86295H37.8267L37.2446 8.31325C36.1688 8.52641 35.1388 8.86701 34.1888 9.32378L32.4911 8.63123L29.5074 11.0225L30.367 12.3839C29.7963 13.1423 29.3703 13.9647 29.1032 14.8237L27.2923 15.2948V18.6751L29.1032 19.1456C29.3701 20.0049 29.796 20.8274 30.367 21.5859ZM28.5777 16.0412L30.1979 15.6171L30.2754 15.3298C30.5256 14.3901 30.9892 13.495 31.6429 12.689L31.8451 12.4384L31.0703 11.222L32.7411 9.88752L34.2535 10.5095L34.5674 10.3478C35.5752 9.825 36.6939 9.45386 37.8685 9.25264L38.2141 9.19389L38.7611 7.8918H41.123L41.4922 8.80801L41.6687 9.19389L42.0143 9.25318C43.1864 9.45359 44.3026 9.82442 45.3073 10.3472L45.6118 10.5062L47.1451 9.88914L48.8131 11.2241L48.0397 12.4416L48.2419 12.6911C48.8956 13.4971 49.3592 14.3922 49.6094 15.332L49.6869 15.6187L51.3071 16.0434V17.9297L49.6869 18.3538L49.6094 18.64C49.3586 19.5796 48.8951 20.4746 48.2419 21.2809L48.0397 21.5315L48.8138 22.7479L47.1451 24.0839L45.6131 23.4647L45.3066 23.6264C44.3026 24.1499 43.1865 24.5208 42.0143 24.7204L41.6674 24.7803L41.123 26.0818H38.7624L38.3933 25.1656L38.2161 24.7792L37.8691 24.7199C36.6947 24.5191 35.576 24.1483 34.5681 23.6258L34.2555 23.4641L32.7411 24.0834L31.0723 22.7473L31.8477 21.532L31.6456 21.2803C30.9924 20.4741 30.5289 19.5791 30.2781 18.6395L30.2006 18.3528L28.5804 17.9292L28.5777 16.0412ZM39.9434 22.3469C41.2688 22.3463 42.5641 22.0313 43.6657 21.4417C44.7673 20.8522 45.6257 20.0146 46.1323 19.0348C46.6389 18.0551 46.771 16.9771 46.5119 15.9373C46.2528 14.8975 45.6141 13.9425 44.6766 13.193C43.7391 12.4435 42.5449 11.9333 41.2449 11.7267C39.945 11.5202 38.5976 11.6266 37.3733 12.0326C36.1489 12.4386 35.1026 13.1258 34.3664 14.0075C33.6303 14.8892 33.2374 15.9257 33.2376 16.986C33.2393 18.4079 33.9466 19.7711 35.204 20.7761C36.4614 21.7811 38.166 22.3457 39.9434 22.3458V22.3469ZM39.9434 12.6523C41.0146 12.6531 42.0615 12.9079 42.9517 13.3845C43.8419 13.8612 44.5355 14.5382 44.9448 15.3302C45.3541 16.1221 45.4607 16.9934 45.2511 17.8338C45.0416 18.6742 44.5253 19.446 43.7675 20.0517C43.0097 20.6574 42.0445 21.0698 40.9938 21.2367C39.9431 21.4036 38.8541 21.3175 37.8646 20.9894C36.875 20.6613 36.0292 20.1059 35.4342 19.3933C34.8392 18.6807 34.5216 17.843 34.5216 16.986C34.5221 15.836 35.0936 14.7333 36.1104 13.9204C37.1272 13.1075 38.5059 12.651 39.9434 12.6512V12.6523ZM18.5465 24.4407C19.9481 24.4403 21.3181 24.1074 22.4832 23.4841C23.6483 22.8609 24.5563 21.9752 25.0923 20.9392C25.6283 19.9032 25.7682 18.7632 25.4945 17.6636C25.2207 16.5639 24.5455 15.5538 23.5543 14.7611C22.563 13.9684 21.3002 13.4286 19.9255 13.21C18.5508 12.9915 17.1259 13.1039 15.8311 13.5331C14.5362 13.9622 13.4295 14.6889 12.6509 15.6213C11.8723 16.5536 11.4567 17.6497 11.4567 18.771C11.4593 20.2744 12.2073 21.7156 13.5364 22.7785C14.8655 23.8414 16.6672 24.4391 18.5465 24.4407ZM18.5465 14.1285C19.6942 14.1289 20.8159 14.4016 21.7698 14.9119C22.7238 15.4223 23.4672 16.1475 23.906 16.9959C24.3448 17.8442 24.4593 18.7776 24.2351 19.678C24.0109 20.5784 23.458 21.4054 22.6463 22.0545C21.8346 22.7035 20.8006 23.1455 19.675 23.3244C18.5494 23.5034 17.3827 23.4113 16.3225 23.0599C15.2622 22.7084 14.3561 22.1134 13.7185 21.35C13.081 20.5866 12.7407 19.6891 12.7407 18.771C12.7429 17.5399 13.3553 16.3597 14.4437 15.4894C15.5321 14.6191 17.0076 14.1296 18.5465 14.1285ZM15.0434 19.048C14.9837 19.0003 14.9364 18.9437 14.9042 18.8813C14.8719 18.819 14.8553 18.7522 14.8553 18.6848C14.8553 18.6173 14.8719 18.5505 14.9042 18.4882C14.9364 18.4258 14.9837 18.3692 15.0434 18.3215C15.103 18.2738 15.1738 18.236 15.2517 18.2101C15.3296 18.1843 15.4131 18.171 15.4974 18.171C15.5818 18.171 15.6653 18.1843 15.7432 18.2101C15.8211 18.236 15.8919 18.2738 15.9515 18.3215L17.4336 19.5072L21.1773 16.9418C21.3066 16.8532 21.4747 16.8093 21.6445 16.8198C21.8143 16.8303 21.9719 16.8944 22.0827 16.9979C22.1935 17.1013 22.2483 17.2358 22.2352 17.3716C22.222 17.5075 22.142 17.6336 22.0126 17.7222L17.8176 20.5964C17.6947 20.6805 17.5367 20.7244 17.3751 20.7194C17.2136 20.7144 17.0603 20.6609 16.9459 20.5695L15.0434 19.048Z" fill="black"/>
</svg>
