<svg width="128" height="128" viewBox="0 0 128 128" fill="none" xmlns="http://www.w3.org/2000/svg">
<g clip-path="url(#clip0_134_2)">
<path d="M115.81 128H12.1905C5.46743 128 0 121.621 0 113.778V14.2222C0 6.37867 5.46743 0 12.1905 0H115.81C122.533 0 128 6.37867 128 14.2222V113.778C128 121.621 122.533 128 115.81 128Z" fill="#FFC107"/>
<path d="M12 12H116V116H12V12Z" fill="#388E3C"/>
<path d="M76 109.833H100.571V116L76 116V109.833ZM64 41.25C58.9506 41.25 54.8572 45.3914 54.8572 50.5C54.8572 55.6087 58.9506 59.75 64 59.75C69.0495 59.75 73.1429 55.6087 73.1429 50.5C73.1429 45.3914 69.0495 41.25 64 41.25Z" fill="white"/>
<path d="M39.6192 54.25C36.2529 54.25 33.5239 57.0109 33.5239 60.4166C33.5239 63.8224 36.2529 66.5833 39.6192 66.5833C42.9855 66.5833 45.7144 63.8224 45.7144 60.4166C45.7144 57.0109 42.9855 54.25 39.6192 54.25Z" fill="#A5D6A7"/>
<path d="M12 12H115.619V18.1667H12V12Z" fill="#2E7D32"/>
<path d="M100.5 116H76L88.3333 128H113L100.5 116Z" fill="#FFAB00"/>
<path d="M88.3809 54.25C85.0146 54.25 82.2856 57.0109 82.2856 60.4166C82.2856 63.8224 85.0146 66.5833 88.3809 66.5833C91.7472 66.5833 94.4761 63.8224 94.4761 60.4166C94.4761 57.0109 91.7472 54.25 88.3809 54.25ZM103.619 77.9546C103.619 76.5825 103.122 75.2598 102.193 74.2577C100.081 71.9791 95.5824 69.6666 88.3809 69.6666C81.1793 69.6666 76.6811 71.9791 74.5691 74.2577C73.6395 75.2598 73.1428 76.5795 73.1428 77.9546V82H103.619V77.9546ZM54.8571 77.9546C54.8571 76.5825 54.3603 75.2598 53.4308 74.2577C51.3188 71.9791 46.8205 69.6666 39.619 69.6666C32.4174 69.6666 27.9191 71.9791 25.8071 74.2577C24.8776 75.2598 24.3809 76.5795 24.3809 77.9546V82H54.8571V77.9546Z" fill="#A5D6A7"/>
<path d="M82.2858 75.0378C82.2858 73.3913 81.6884 71.8065 80.573 70.604C78.0404 67.8691 72.6401 63.5 64.0001 63.5C55.3601 63.5 49.9597 67.869 47.4271 70.6009C46.3117 71.8034 45.7144 73.3882 45.7144 75.0378V82H82.2858V75.0378Z" fill="white"/>
</g>
<defs>
<clipPath id="clip0_134_2">
<rect width="128" height="128" fill="white"/>
</clipPath>
</defs>
</svg>
