<svg width="128" height="128" viewBox="0 0 128 128" fill="none" xmlns="http://www.w3.org/2000/svg">
<g clip-path="url(#clip0_1_41)">
<path d="M57.1221 0.502216C49.2467 1.32762 39.676 4.57419 32.6757 8.70118C15.6672 18.7711 4.3464 35.7193 1.44784 55.4738C0.244659 63.8929 1.55722 77.4295 4.29171 84.9131C6.36992 90.4157 8.83096 95.093 9.81538 95.093C11.1279 95.093 11.0732 94.7628 8.88565 90.0306C-1.50542 67.3596 2.86977 40.0664 19.933 21.9076C42.0824 -1.75388 78.0683 -4.06499 103.499 16.4599C105.741 18.2758 108.093 20.4219 108.749 21.2473L109.898 22.733L103.116 23.0081C97.6472 23.2282 96.3894 23.4483 96.3894 24.1086C96.3894 24.824 97.6472 24.934 104.593 24.934H112.796L112.96 16.4599C113.07 10.7372 112.906 7.76573 112.468 7.27049C111.265 5.78477 110.882 7.16044 110.882 13.1583C110.882 16.4599 110.718 19.1562 110.554 19.1562C110.39 19.1562 108.64 17.7806 106.726 16.1298C96.1706 7.10541 84.5217 1.98794 71.2321 0.447189C65.7084 -0.158104 63.302 -0.158104 57.1221 0.502216Z" fill="black"/>
<path d="M117.773 32.3077C117.609 32.5278 118.156 34.1236 119.031 35.7194C124.992 46.9448 127.234 62.8475 124.609 76.1089C118.539 107.309 89.5531 128.769 58.2158 125.413C44.434 123.927 32.5663 118.424 22.7768 109.015L18.2922 104.723L24.2534 104.448C29.7771 104.173 30.2146 104.062 30.2146 103.072C30.2146 102.026 29.7771 101.971 23.3784 101.806C13.0967 101.586 14.0264 100.651 14.1905 111.216C14.3546 118.7 14.4639 120.13 15.1749 120.13C15.8312 120.13 15.9953 118.92 16.1593 113.362C16.214 109.675 16.4328 106.649 16.5968 106.649C16.7609 106.649 18.4563 108.134 20.3157 109.95C25.0191 114.573 29.3396 117.709 35.4101 120.846C44.5433 125.633 51.5983 127.504 62.4816 127.944C79.4354 128.659 95.6783 122.496 108.148 110.721C115.257 103.952 120.672 95.6984 124.172 86.2889C127.234 78.0349 128 73.4677 128 63.7279C127.945 56.0242 127.781 54.5385 126.305 48.7607C123.68 38.5808 119.195 29.9416 117.773 32.3077Z" fill="black"/>
<path d="M87 53.5C87 49.3579 90.3579 46 94.5 46V46C98.6421 46 102 49.3579 102 53.5V97H87V53.5Z" fill="black"/>
<path d="M45 57.5C45 53.3579 48.3579 50 52.5 50V50C56.6421 50 60 53.3579 60 57.5V97H45V57.5Z" fill="black"/>
<path d="M66 68.5C66 64.3579 69.3579 61 73.5 61V61C77.6421 61 81 64.3579 81 68.5V97H66V68.5Z" fill="black"/>
<path d="M24 68.5C24 64.3579 27.3579 61 31.5 61V61C35.6421 61 39 64.3579 39 68.5V97H24V68.5Z" fill="black"/>
<path d="M35.44 37.82C35.44 33.12 28.5 34.22 28.5 31.78C28.5 30.9 29.12 30.48 29.94 30.5C30.86 30.52 31.5 31.06 31.56 31.96H35.26C35.12 29.28 33.06 27.76 30 27.76C27.06 27.76 24.88 29.24 24.88 31.9C24.84 36.88 31.86 35.48 31.86 38.08C31.86 38.9 31.22 39.4 30.22 39.4C29.26 39.4 28.58 38.88 28.48 37.8H24.84C24.94 40.64 27.3 42.14 30.32 42.14C33.6 42.14 35.44 40.18 35.44 37.82ZM51.3647 34.94C51.3647 30.72 48.1847 27.76 44.1847 27.76C40.2047 27.76 36.9647 30.72 36.9647 34.94C36.9647 39.16 40.2047 42.14 44.1847 42.14C48.1647 42.14 51.3647 39.16 51.3647 34.94ZM40.4647 34.94C40.4647 32.44 41.9047 30.86 44.1847 30.86C46.4247 30.86 47.8847 32.44 47.8847 34.94C47.8847 37.4 46.4247 39.02 44.1847 39.02C41.9047 39.02 40.4647 37.4 40.4647 34.94ZM53.2673 27.96V42H61.1673V39.36H56.6873V27.96H53.2673ZM68.8586 38.56L65.3786 27.96H61.7386L66.7186 42H70.9986L75.9786 27.96H72.3586L68.8586 38.56ZM86.008 27.96H77.408V42H86.008V39.26H80.828V36.18H85.408V33.54H80.828V30.7H86.008V27.96ZM93.4883 27.96H88.2283V42H93.4883C97.9683 42 100.848 39.14 100.848 34.98C100.848 30.8 97.9683 27.96 93.4883 27.96ZM91.6483 39.04V30.88H93.2683C95.8483 30.88 97.3683 32.4 97.3683 34.98C97.3683 37.56 95.8483 39.04 93.2683 39.04H91.6483Z" fill="black"/>
</g>
<defs>
<clipPath id="clip0_1_41">
<rect width="128" height="128" fill="white"/>
</clipPath>
</defs>
</svg>
