<svg width="128" height="128" viewBox="0 0 128 128" fill="none" xmlns="http://www.w3.org/2000/svg">
<g clip-path="url(#clip0_32_696)">
<path d="M21.0149 118.036L84.3817 9.04533C83.5707 8.23425 82.3539 8.03146 81.8469 8.03146H47.3754C44.131 7.62591 40.9542 11.242 39.7713 13.1008C29.1257 32.0264 6.92206 71.2969 3.27213 76.9746C-0.377802 82.6523 1.07541 87.4513 2.25826 89.1411C5.63783 95.0553 13.1067 107.999 15.9455 112.46C18.7843 116.921 20.5079 118.036 21.0149 118.036Z" fill="#00AC47"/>
<path d="M127.854 82.8257L1.1138 82.8257C0.805355 83.9368 0.946809 85.561 1.45394 88.0956C6.40332 96.7602 15.355 111.286 17.1669 114.458C19.8033 119.074 24.33 118.977 26.5468 119.074C48.4235 118.849 93.8741 118.48 100.664 118.809C107.453 119.137 110.939 115.471 111.833 113.597C115.34 107.698 122.98 94.7252 125.482 90.024C127.983 85.3228 128.105 83.2663 127.854 82.8257Z" fill="#2684FC"/>
<path d="M107.404 117.498L44.5442 9.01387C44.0372 8.50693 46.065 8 47.0789 8.03146H81.5504C84.7948 7.62591 87.9716 11.242 89.1545 13.1008C99.8 32.0264 122.004 71.2969 125.654 76.9746C129.304 82.6523 127.85 87.4513 126.668 89.1411C123.288 95.0553 115.819 107.999 112.98 112.46C110.141 116.921 107.911 117.498 107.404 117.498Z" fill="#FFBA00"/>
<path d="M44.4999 9L64.5 43.5C70.5 33.8333 83.2 13.1 86 9.5C84.8 8.3 82.5 8 81.5 8H47.9999C44.7999 8 44.3333 8.66667 44.4999 9Z" fill="#00832D"/>
<path d="M128 83H87.5C93.8333 94 106.7 116.3 107.5 117.5C109 117 110.5 116 113 112.5C115.5 109 123.5 94.5 126 90.5C128 87.3 128.167 84.1667 128 83Z" fill="#EA4335"/>
<path d="M21.001 118L41.5009 83H1.00092C0.600922 85 0.500752 86.5 1.50092 88.5C4.66759 94 12.2009 106.9 17.0009 114.5C19.001 117.5 20.6676 117.833 21.001 118Z" fill="#0066DA"/>
</g>
<defs>
<clipPath id="clip0_32_696">
<rect width="128" height="128" fill="white"/>
</clipPath>
</defs>
</svg>
