<svg width="128" height="128" viewBox="0 0 128 128" fill="none" xmlns="http://www.w3.org/2000/svg">
<g clip-path="url(#clip0_1_9)">
<path d="M111 117.5C109.277 120.755 109.89 123.19 107 125C104.11 126.813 100.933 128 97.4702 128H30.5298C27.07 128 23.7456 127.003 20.8528 125.193C17.96 123.384 18.7234 120.755 17 117.5L41.708 86H86.292L111 117.5Z" fill="#1E88E5"/>
<path d="M75.155 4.36191C78.6133 4.35486 81.9362 0.838536 84.8273 2.66411C87.7184 4.4932 90.1776 8.13993 91.9083 11.421L125.396 74.8438C127.127 78.1214 127.997 81.776 128 85.4237C128.003 89.0783 123.916 92.7295 122.179 96L86.5 86.5L64 43.143L75.155 4.36191Z" fill="#FBC02D"/>
<path d="M128 86C128 89.6214 127.124 93.208 125.371 96.4464L113.459 118.558C111.739 121.274 109.532 123.433 107 125L86 86H128Z" fill="#EA4335"/>
<path d="M5.82141 96C4.08723 92.7296 0 89.0785 0 85.4274C0.00322337 81.7764 0.87031 78.1218 2.60448 74.8408L36.0953 11.4194C37.8262 8.14194 40.2857 4.49175 43.1738 2.66622C46.0652 0.837166 49.3917 4.35344 52.8504 4.36049L64 43.1583L41.5 86.5L5.82141 96Z" fill="#4CAF50"/>
<path d="M42 86L20.5 125C17.9683 123.433 16.2612 121.274 14.541 118.558L2.62906 96.4464C0.876352 93.208 0 89.6214 0 86H42Z" fill="#0066DA"/>
<path d="M85 2.8L64.0162 43L43 2.8C45.5336 1.225 48.3921 0.245001 51.4455 0.0350008L75.2552 0C78.7633 0 82.109 0.980001 85 2.8Z" fill="#00832D"/>
</g>
<defs>
<clipPath id="clip0_1_9">
<rect width="128" height="128" fill="white"/>
</clipPath>
</defs>
</svg>
