<svg width="128" height="128" viewBox="0 0 128 128" fill="none" xmlns="http://www.w3.org/2000/svg">
<g clip-path="url(#clip0_17_26)">
<rect x="57" y="35" width="30" height="48" fill="#3D9AE2"/>
<path d="M58.7111 0.0431348C47.9459 1.15974 37.9251 4.56682 29.6507 9.92081L27.5034 11.2951L27.3316 9.29092C27.074 6.14152 25.5851 4.59545 22.7793 4.59545C20.9756 4.59545 20.0594 5.05355 18.9428 6.57099C18.3701 7.31539 18.3415 7.71622 18.3415 15.9047C18.3415 24.0931 18.3701 24.4939 18.9428 25.2384C19.2577 25.6678 19.8876 26.2977 20.3171 26.6126C21.0615 27.1853 21.4623 27.2139 29.6507 27.2139C37.8392 27.2139 38.24 27.1853 38.9844 26.6126C40.5019 25.496 40.96 24.5798 40.96 22.7761C40.96 21.5163 40.8168 20.8865 40.3587 20.3138C39.2421 18.7964 38.3832 18.3669 36.0068 18.1951L33.8022 18.052L36.0927 16.7063C57.5086 4.13736 84.4503 7.28676 102.173 24.4653C107.212 29.3326 110.419 33.7417 113.425 39.8115C121.671 56.6179 120.869 76.4877 111.306 92.3493C107.899 97.9895 102.516 104.031 97.5347 107.781C81.0433 120.264 58.9974 122.612 40.5877 113.822C34.518 110.931 30.4238 108.039 25.4706 103.086C19.8876 97.5601 16.366 92.4638 13.5315 85.7641C10.8688 79.4653 9.52319 73.5387 9.09373 66.0661C8.83605 62.0005 8.63563 61.4278 6.91777 60.1681C5.80117 59.3378 3.10986 59.3378 1.99325 60.1681C-0.125434 61.7428 -0.411743 63.203 0.132244 69.5018C1.44927 84.3899 7.54766 97.7605 17.8834 108.468C27.9042 118.833 39.9006 125.046 54.7028 127.451C59.0261 128.167 68.8465 128.167 73.3702 127.479C86.884 125.361 98.7658 119.491 108.386 110.215C118.636 100.309 124.906 88.3409 127.339 74.0255C128.084 69.7022 128.227 59.3664 127.626 55.5585C125.078 39.9546 119.036 28.0728 108.5 17.9088C98.9662 8.71831 87.4566 2.90623 74.315 0.730277C70.8506 0.129028 61.6315 -0.243175 58.7111 0.0431348Z" fill="#3D9AE2"/>
<path d="M58.7111 23.091C43.1645 25.0379 29.7366 36.2326 24.7835 51.3498C23.2947 55.9593 22.9225 58.4502 22.9511 64.1478C22.9511 69.7308 23.3806 72.4508 24.9266 77.089C28.9922 89.1999 38.8126 99.0203 50.9235 103.086C55.6476 104.661 58.2817 105.061 64.0078 105.061C69.734 105.061 72.3681 104.661 77.0922 103.086C89.3748 98.963 99.1666 89.0567 103.232 76.6595C104.664 72.2503 105.065 69.5304 105.093 64.2909C105.093 56.9614 103.919 51.7792 100.77 45.509C93.0396 29.9911 76.0328 20.9437 58.7111 23.091ZM66.5274 37.292C66.9282 37.5783 67.5294 38.2082 67.8444 38.6376C68.417 39.382 68.4456 39.8401 68.5315 50.4908L68.6174 61.571L74.6585 65.5793C77.9797 67.7839 80.986 69.9885 81.3582 70.4752C83.0188 72.6225 82.2457 75.8578 79.7549 77.1176C77.3785 78.3487 76.949 78.1769 68.3597 72.4221C64.1796 69.5877 60.4862 66.925 60.1427 66.4955C59.5987 65.7225 59.57 65.2358 59.4842 53.3253C59.4269 46.5111 59.4842 40.5559 59.57 40.0405C59.7705 38.8953 60.973 37.4351 62.1468 36.9198C63.2921 36.3758 65.5825 36.5762 66.5274 37.292Z" fill="#BDDBFF"/>
<circle cx="64" cy="64" r="37" stroke="#3D9AE2" stroke-width="8"/>
</g>
<defs>
<clipPath id="clip0_17_26">
<rect width="128" height="128" fill="white"/>
</clipPath>
</defs>
</svg>
