<svg width="128" height="128" viewBox="0 0 128 128" fill="none" xmlns="http://www.w3.org/2000/svg">
<rect x="27" y="22" width="40" height="5" rx="2.5" fill="#89A7D7"/>
<rect x="36" y="43" width="45" height="5" rx="2.5" fill="#89A7D7"/>
<rect x="13" y="43" width="19" height="5" rx="2.5" fill="#89A7D7"/>
<rect x="36" y="58" width="45" height="5" rx="2.5" fill="#89A7D7"/>
<rect x="13" y="58" width="19" height="5" rx="2.5" fill="#89A7D7"/>
<rect x="36" y="71" width="45" height="5" rx="2.5" fill="#89A7D7"/>
<rect x="13" y="71" width="19" height="5" rx="2.5" fill="#89A7D7"/>
<path fill-rule="evenodd" clip-rule="evenodd" d="M83 5H10C7.23857 5 5 7.23858 5 10V105C5 107.761 7.23858 110 10 110H78.3074C77.4596 107.488 77 104.798 77 102C77 93.3802 81.3625 85.7793 88 81.2847V10C88 7.23858 85.7614 5 83 5ZM10 115H80.6416C85.0309 122.196 92.9544 127 102 127C115.807 127 127 115.807 127 102C127 88.1929 115.807 77 102 77C98.8273 77 95.7926 77.591 93 78.669V10C93 4.47715 88.5228 0 83 0H10C4.47715 0 0 4.47715 0 10V105C0 110.523 4.47715 115 10 115ZM102 123C113.598 123 123 113.598 123 102C123 90.402 113.598 81 102 81C90.402 81 81 90.402 81 102C81 113.598 90.402 123 102 123Z" fill="#89A7D7"/>
<path d="M99.5765 91.1934C99.3044 91.3174 98.8592 91.6647 98.5871 91.9623C98.1171 92.4833 98.0924 92.9049 98.0182 99.3792C97.9687 105.829 97.9935 106.275 98.4387 107.019C99.1807 108.21 100.195 108.384 106.181 108.284L111.375 108.21L112.092 107.391C113.007 106.374 113.057 105.184 112.216 104.191L111.622 103.497L107.318 103.373L103.039 103.249L102.916 97.6676C102.841 94.5917 102.743 92.0616 102.718 92.0119C102.693 91.9871 102.297 91.7391 101.877 91.4662C101.011 90.9453 100.393 90.8709 99.5765 91.1934Z" fill="#89A7D7"/>
</svg>
