<svg width="128" height="128" viewBox="0 0 128 128" fill="none" xmlns="http://www.w3.org/2000/svg">
<g clip-path="url(#clip0_1_18)">
<path fill-rule="evenodd" clip-rule="evenodd" d="M69.8597 34.4431C71.3235 33.5794 72.8146 32.6997 74.4082 32.2499C68.2617 18.9247 78.9478 3.27833 92.9061 0.377629C104.691 -2.07128 116.595 4.087 121.484 14.4999C129.61 31.8087 113.726 50.0342 94.9904 48.2077C90.8787 47.8069 86.892 46.2612 83.5269 43.9909C83.1365 43.7275 82.6011 43.2107 82.0101 42.6402C80.825 41.4961 79.4161 40.136 78.5025 40.1692C77.0913 40.2206 75.1114 41.5214 73.4815 42.5923C72.8521 43.0057 72.275 43.3849 71.8029 43.6447C68.1051 45.6789 64.3981 47.6972 60.6909 49.7156L60.6908 49.7157L60.6907 49.7157L60.6868 49.7179L60.6829 49.72C59.0919 50.5863 57.5007 51.4526 55.9103 52.3202C55.5426 52.5207 54.9803 52.7683 54.3356 53.0521C52.3966 53.9056 49.713 55.087 49.3417 56.3032C49.131 56.9937 49.4446 58.0225 49.7285 58.9541L49.7286 58.9541C49.8739 59.431 50.0115 59.8825 50.067 60.2499C50.4511 62.7937 50.4511 65.2062 50.067 67.7499C50.0188 68.069 49.8914 68.4916 49.7525 68.952C49.4366 69.9995 49.0618 71.2421 49.4285 71.9024C50.1119 73.1331 52.5661 74.2084 54.4769 75.0455C55.1388 75.3355 55.7355 75.597 56.1708 75.8264C60.5076 78.1121 64.8018 80.4863 69.0915 82.8581L69.0919 82.8584L69.0942 82.8596L69.0965 82.8609C70.0856 83.4077 71.0744 83.9545 72.0634 84.4999C72.5104 84.7464 73.0601 85.1077 73.6608 85.5025C75.2222 86.5288 77.1278 87.7812 78.4663 87.8307C79.3158 87.8619 80.3808 86.7713 81.2522 85.8789C81.6213 85.5009 81.9557 85.1584 82.2242 84.9519C84.7691 82.9952 87.6796 81.4709 90.8219 80.6067C105.462 76.5807 122.269 85.9689 123.365 101.25C123.675 105.566 123.216 110.065 121.237 114C116.153 124.109 104.523 130.036 92.9061 127.622C78.9478 124.722 68.2617 109.075 74.4082 95.7499C72.5152 95.2156 70.701 94.1266 68.9448 93.0725C68.2385 92.6486 67.5416 92.2302 66.8527 91.8559L52.5233 84.0702C51.9036 83.7321 51.1934 83.2665 50.4388 82.7718C48.6606 81.606 46.6358 80.2786 44.9681 80.0779C44.125 79.9764 43.4281 80.7051 42.8311 81.3294C42.6592 81.5092 42.4955 81.6803 42.3391 81.8204C40.5114 83.4569 38.375 84.8894 36.1097 85.9199C28.4018 89.4262 18.8671 89.0099 11.6195 84.6402C-5.73816 74.1747 -3.07679 48.6729 15.788 41.3632C22.2542 38.8577 30.143 39.2144 36.3702 42.2022C38.5243 43.2354 40.5833 44.5802 42.3182 46.1794C42.4629 46.3128 42.6143 46.4715 42.7733 46.6381C43.3806 47.2746 44.098 48.0263 44.9679 47.9219C46.6353 47.722 48.6612 46.3937 50.4399 45.2275L50.44 45.2275C51.1943 44.7329 51.9042 44.2675 52.5233 43.9297C54.1574 43.0382 55.7876 42.1377 57.4182 41.237L57.4187 41.2367L57.4189 41.2366C60.8956 39.3162 64.3738 37.3949 67.8949 35.5577C68.5489 35.2164 69.2015 34.8314 69.8597 34.4431ZM98.1175 43C109.053 43 117.918 34.4934 117.918 24C117.918 13.5066 109.053 5 98.1175 5C87.1819 5 78.3169 13.5066 78.3169 24C78.3169 34.4934 87.1819 43 98.1175 43ZM44.9686 64C44.9686 74.4934 36.1036 83 25.168 83C14.2325 83 5.36745 74.4934 5.36745 64C5.36745 53.5066 14.2325 45 25.168 45C36.1036 45 44.9686 53.5066 44.9686 64ZM98.1175 123C109.053 123 117.918 114.493 117.918 104C117.918 93.5066 109.053 85 98.1175 85C87.1819 85 78.3169 93.5066 78.3169 104C78.3169 114.493 87.1819 123 98.1175 123Z" fill="#02D7C3"/>
</g>
<defs>
<clipPath id="clip0_1_18">
<rect width="128" height="128" fill="white"/>
</clipPath>
</defs>
</svg>
