<svg width="128" height="128" viewBox="0 0 128 128" fill="none" xmlns="http://www.w3.org/2000/svg">
<path d="M110.646 35.05V119.75C110.646 124.3 106.946 128 102.396 128H26.1709C21.6209 128 17.9209 124.3 17.9209 119.75V8.24999C17.9209 3.7 21.6209 0 26.1709 0H75.5709L110.646 35.05Z" fill="#F5B912"/>
<path d="M81.346 58.3749H47.721C44.596 58.3749 42.071 60.8999 42.071 64.0249V97.6499C42.071 100.775 44.596 103.3 47.721 103.3H81.346C84.471 103.3 86.996 100.775 86.996 97.6499V63.9999C86.996 60.8999 84.471 58.3749 81.346 58.3749ZM81.171 93.2499H47.921V70.6249H81.171V93.2499Z" fill="white"/>
<path opacity="0.19" d="M80.3451 33.5999L110.62 58.1249V35.0749L93.4451 25.1249L80.3451 33.5999Z" fill="black"/>
<path d="M110.795 35.0499H83.9954C79.4454 35.0499 75.7454 31.3499 75.7454 26.7999V-7.62939e-05L110.795 35.0499Z" fill="#FADC87"/>
</svg>
