<?xml version="1.0" encoding="UTF-8"?>
<svg width="153px" height="144px" viewBox="0 0 153 144" version="1.1" xmlns="http://www.w3.org/2000/svg" xmlns:xlink="http://www.w3.org/1999/xlink">
    <title>Group 52</title>
    <g id="Page-1" stroke="none" stroke-width="1" fill="none" fill-rule="evenodd">
        <g id="02-social_Error" transform="translate(-111.000000, -292.000000)">
            <g id="Group-52" transform="translate(111.000000, 292.000000)">
                <path d="M82.1229198,5.0292488 C74.5263953,4.95767529 28.5207437,4.24553684 27.1682286,17.0679852 C25.8721732,29.3491364 43.6986889,24.8529532 43.8723834,30.302251 C44.0572259,36.0266932 40.6577776,37.6833142 31.1689546,37.3204113 C27.0567477,37.1632374 14.0785725,38.6173665 13.8717934,46.8105553 C13.6646547,54.9580665 28.1568125,53.9297818 27.4397386,60.6900617 C27.0236631,68.3736039 16.0172614,70.0446116 11.6813734,72.0760045 C6.97040623,74.5404351 -1.69957151,78.6039403 0.292340501,87.3258379 C2.91429943,97.4400022 19.5630733,95.6211718 25.8344136,96.8670544 C30.0224994,97.5471826 43.340152,98.7214917 41.4460554,107.684365 C40.4506389,113.070722 29.5186776,113.38507 31.6084051,120.29605 C33.7233058,126.757088 52.7868999,128.033542 56.6488141,128.242867 C72.6794084,129.110381 107.880043,130.528544 123.558214,123.914288 C129.322496,121.507045 134.41034,118.608138 133.820571,109.963568 C133.534316,102.242621 129.370325,101.111112 136.383193,95.1446145 C140.816177,91.3044619 149.30311,91.6134149 148.801446,80.4047873 C148.530296,74.3577249 133.065737,71.8468973 133.408451,65.5189358 C133.946436,55.5756128 152.930555,64.0187694 153,46.4307481 C153.042396,35.4526664 118.505612,41.594321 118.858035,30.734929 C118.392333,26.327943 125.994611,24.4573207 125.66808,19.5798917 C125.846449,11.7697471 116.901006,5.98991637 82.1229198,5.0292488" id="Fill-4" fill="#DFE9F9"></path>
                <path d="M52.8604662,84.962747 C52.8213289,84.9864866 52.7747369,85 52.7169628,85 C43.5811988,85 34.4454349,85 25.3100436,85 C25.1885316,85 25.0666469,84.9167285 25.0386917,84.7980302 C24.7390118,83.5212009 26.2467297,82.5175605 27.2646722,83.0076935 C27.4078029,82.3583221 28.0641913,81.9109205 28.7496532,81.9938268 C28.3731896,80.8280262 28.8939021,79.6476165 30.1436865,79.0807861 C31.2932049,78.5574176 32.3637032,78.9880188 33.0454377,79.8404557 C33.4379289,77.8631234 35.1786069,76.1542321 37.2979849,76.0110636 C38.4501125,75.9347314 39.6697053,76.2524778 40.5661358,76.9924252 C41.4607027,77.7283551 41.7521824,78.5344084 41.9758241,79.5219788 C42.6452583,78.5800616 43.7288024,78.1348514 44.9752322,78.5135905 C46.2056343,78.8875817 46.3610653,80.1187577 46.3040367,81.2250266 C47.2955149,80.4186081 48.487898,80.0270861 49.7812926,80.7896775 C50.8555183,81.4226137 51.0881057,82.4401327 51.1324613,83.545671 C52.0151006,83.0307027 52.9290497,83.5416535 52.9994968,84.7246198 C53.0062061,84.8458747 52.9450774,84.9247635 52.8604662,84.962747" id="Fill-5" fill="#DAEEE5"></path>
                <path d="M126,29.9672465 C126,34.8814408 140.235743,35.78799 140.974706,29.9672465 C141.714041,24.145457 126,22.588633 126,29.9672465" id="Fill-6" fill="#89A7D7" opacity="0.190111737"></path>
                <path d="M15,108.94977 C15,113.864424 32.3478959,114.81486 32.9766023,108.94977 C33.7519456,101.719344 15,100.343896 15,108.94977" id="Fill-7" fill="#89A7D7" opacity="0.190111737"></path>
                <path d="M114,136.139821 C114,142.037434 134.239177,143.177655 134.972708,136.139821 C135.87718,127.463271 114,125.81256 114,136.139821" id="Fill-8" fill="#89A7D7" opacity="0.190111737"></path>
                <path d="M15,30.5697243 C15,33.5186461 24.6378197,34.0890124 24.9869759,30.5697243 C25.4181561,26.2317364 15,25.4063075 15,30.5697243" id="Fill-9" fill="#89A7D7" opacity="0.190111737"></path>
                <path d="M68.7667423,88.9656146 C69.047426,87.5452463 66.9588936,86.2399155 65.3494717,86.763572 C65.6121166,85.7895637 65.3130333,84.906279 63.8865249,84.47008 C63.291966,84.2886329 62.5776294,84.2908102 61.9502399,84.4613706 C63.0755003,82.2048938 62.0281675,79.6356022 58.5506473,79.1046878 C54.7693537,78.5269601 50.5728068,80.3933255 49.8223927,83.3970016 C46.7474985,80.3577618 40.2318833,83.9994061 42.1551804,87.4969814 C40.9671449,87.3068247 39.7430318,87.9836226 39.6708766,88.9892027 C38.4680493,88.5780435 37.5202907,89.8111583 38.2620462,90.8737128 C38.3161626,90.9513722 38.4269208,91 38.5376791,91 C49.2354101,91 59.9338626,91 70.6312328,91 C70.713129,91 70.7773471,90.9789521 70.8264127,90.9473803 C70.8772821,90.9179859 70.9180498,90.8740757 70.9389748,90.8131094 C71.3044409,89.7661594 69.9583855,88.7729177 68.7667423,88.9656146" id="Fill-10" fill="#FFFFFE"></path>
                <path d="M67.9852838,113.983164 C68.1135983,113.272445 67.1634779,112.619996 66.4321596,112.881797 C66.5519445,112.394306 66.4154713,111.952364 65.7672237,111.734881 C65.4965024,111.644605 65.1723786,111.645426 64.8871942,111.730367 C65.3985978,110.602327 64.9220542,109.317535 63.341487,109.052452 C61.6225924,108.763159 59.7153055,109.697105 59.3737517,111.198559 C57.9760141,109.678229 55.0147685,111.499753 55.8892353,113.248645 C55.3489053,113.153035 54.791887,113.49157 54.7592521,113.994654 C54.2122468,113.789481 53.7816888,114.40623 54.1195341,114.936807 C54.1440102,114.97579 54.194446,115 54.2445109,115 C59.1074806,115 63.9700795,115 68.8326784,115 C68.8693927,115 68.8994316,114.990152 68.9216827,114.974148 C68.9446755,114.958965 68.963218,114.937217 68.9721184,114.906441 C69.1386306,114.383251 68.527468,113.885912 67.9852838,113.983164" id="Fill-11" fill="#FFFFFE"></path>
                <path d="M125.099535,54.97545 C125.127453,54.9908347 125.16074,55 125.202259,55 C131.727509,55 138.253118,55 144.778726,55 C144.865343,55 144.952318,54.9443533 144.972361,54.8654658 C145.186398,54.0143981 144.109773,53.3453279 143.382478,53.6716797 C143.280113,53.2389445 142.811595,52.9404161 142.321959,52.9960628 C142.590758,52.2189725 142.21852,51.4317349 141.325866,51.0536644 C140.504796,50.705054 139.740278,50.9921257 139.253148,51.5600497 C138.972896,50.2418767 137.72948,49.102428 136.215834,49.0075012 C135.392616,48.9561098 134.521795,49.168222 133.881475,49.6611867 C133.242229,50.1521873 133.033919,50.6896693 132.874287,51.3479374 C132.396105,50.7201113 131.622281,50.4232196 130.732132,50.6755939 C129.853437,50.9250222 129.742124,51.7459753 129.782569,52.4834582 C129.074602,51.9459762 128.223108,51.6847639 127.298957,52.1931132 C126.531576,52.6150464 126.365501,53.2932819 126.334004,54.0304375 C125.703347,53.6873917 125.050858,54.0278188 125.000391,54.8163658 C124.99538,54.8975445 125.039047,54.9499179 125.099535,54.97545" id="Fill-12" fill="#FFFFFE"></path>
                <path d="M75.0646605,20.979413 C75.0832505,20.9923303 75.1042504,21 75.1311026,21 C79.3730676,21 83.6143442,21 87.855965,21 C87.9124235,21 87.9688821,20.953982 87.9819639,20.887377 C88.121389,20.1785384 87.4215095,19.6210748 86.948497,19.8931461 C86.882055,19.5326718 86.5777296,19.2836095 86.2589453,19.3296275 C86.4338291,18.6821462 86.1925033,18.0261879 85.6120818,17.711328 C85.0784797,17.420688 84.5820575,17.6596586 84.2649946,18.1331596 C84.082537,17.0347827 83.2742158,16.0849551 82.289978,16.0062401 C81.7549988,15.9634515 81.1890363,16.1402574 80.7728266,16.5507864 C80.3576497,16.9601044 80.2227,17.4077707 80.1183894,17.9567573 C79.8075231,17.4336053 79.3042158,17.1861577 78.7258599,17.396468 C78.1540449,17.6039526 78.0820947,18.2881676 78.1089469,18.9029519 C77.6479835,18.4544782 77.0954471,18.2373056 76.4940258,18.6611555 C75.9951938,19.0123455 75.8877849,19.5778825 75.8671293,20.1918594 C75.4571163,19.9060634 75.0336772,20.1898411 75.000284,20.8470103 C74.9968414,20.9148263 75.0250707,20.9584223 75.0646605,20.979413" id="Fill-13" fill="#FFFFFE"></path>
                <path d="M105.844204,136.247726 C105.842726,136.198393 105.825365,136.159065 105.802462,136.125601 C105.764414,136.053499 105.692013,135.998646 105.578978,136 C102.14064,136.051429 98.7034111,136.104212 95.2647043,136.15596 C95.1250726,136.157685 94.9939371,136.266356 95.0002168,136.402971 C95.0829615,138.259693 94.9137781,140.172303 95.2421711,142.011431 C95.5484004,143.725673 97.5616082,143.857114 99.1167651,143.941291 C101.110395,144.049272 103.956591,144.115164 105.102457,143.129535 C106.428588,141.988317 105.912912,138.0665 105.844204,136.247726" id="Fill-14" fill="#5EB1AE"></path>
                <path d="M96.8805014,140 C95.3564508,140 95.0079108,138.579224 95.0039419,138.563509 C94.9848191,138.481006 95.0371362,138.399216 95.1204827,138.37993 C95.2052724,138.362429 95.2878973,138.412788 95.3070201,138.494935 C95.3207308,138.553509 95.6743221,139.947498 97.3275419,139.650342 C98.4276438,139.452833 98.5102687,137.172735 98.5109903,137.149876 C98.5142376,137.073445 98.5708844,137.010942 98.6473755,137.001656 C98.7202586,136.990227 98.794585,137.039157 98.8155118,137.11166 C98.8443764,137.210593 98.8746842,137.339528 98.9086001,137.488105 C99.0356044,138.040272 99.2286363,138.875308 99.6312975,139.224252 C100.134985,139.6607 101.293898,139.712488 101.889952,139.451048 C102.509459,139.211037 102.810011,138.352071 102.78728,137.572752 C102.771044,137.460961 102.76022,137.345242 102.755529,137.228094 C102.753004,137.147376 102.814341,137.077016 102.896244,137.069873 C102.974539,137.062373 103.051752,137.118446 103.064741,137.19845 C103.082421,137.311312 103.092523,137.42596 103.097575,137.543108 C103.226022,138.378858 103.722854,139.077103 104.351741,139.263897 C104.85182,139.41176 105.337828,139.201037 105.718119,138.670299 C105.767911,138.601011 105.864246,138.585296 105.935325,138.634584 C106.004239,138.683514 106.021197,138.77959 105.971045,138.848522 C105.51282,139.485692 104.890427,139.744632 104.262983,139.557481 C103.727905,139.39926 103.283751,138.958169 103.017836,138.371358 C102.873874,138.98817 102.537601,139.530337 102.00974,139.734989 C101.319876,140.037859 100.037927,139.983928 99.4270804,139.455691 C99.0637473,139.141034 98.8570047,138.551009 98.7191762,138.026343 C98.57341,138.790305 98.223066,139.801777 97.3831062,139.952855 C97.2027025,139.985357 97.0352878,140 96.8805014,140" id="Fill-15" fill="#80C9C7"></path>
                <path d="M100.288852,135.026307 C99.1880591,135.025185 95.446482,135.075675 95.0348489,135.922409 C94.4865015,137.113222 100.573456,137.019722 101.749497,136.980452 C107.322003,136.796818 107.986577,134.745808 100.288852,135.026307" id="Fill-16" fill="#539592"></path>
                <path d="M100.305963,134.027977 C99.693579,134.028591 94.5629361,133.952155 95.0300089,135.14321 C95.2583557,135.724924 96.3449711,135.776803 96.9208486,135.846178 C98.190714,135.997823 99.4881385,136.00427 100.768383,135.998744 C101.902601,135.994139 103.034671,135.943182 104.153498,135.771277 C104.653499,135.694841 105.738683,135.547187 105.960587,135.048049 C106.531812,133.759376 100.711476,134.017233 100.305963,134.027977 C100.041468,134.035037 100.040752,134.386829 100.305963,134.379768 C101.474898,134.349378 102.64097,134.347843 103.805967,134.443926 C104.011408,134.461423 106.047201,134.694109 105.379341,135.068309 C104.147414,135.757463 102.181055,135.635288 100.768383,135.646953 C99.1942943,135.659232 97.5128321,135.68379 95.9816922,135.332613 C95.2426076,135.162856 95.7426082,134.795717 96.2333031,134.674155 C96.7483359,134.546148 97.2988018,134.506241 97.8302984,134.462651 C98.6509866,134.394503 99.4813383,134.38161 100.305963,134.379768 C100.570817,134.379768 100.570817,134.027977 100.305963,134.027977" id="Fill-17" fill="#80C9C7"></path>
                <path d="M105.464073,124.155424 C105.346034,128.38536 105.093717,132.616043 105.000035,136.844856 C104.995038,137.051715 105.532773,137.051715 105.536521,136.844856 C105.631452,132.616043 105.884393,128.38536 105.999935,124.155424 C106.006805,123.948192 105.46907,123.948192 105.464073,124.155424" id="Fill-18" fill="#5EB1AE"></path>
                <path d="M94.0002417,124.154083 C94.2704268,128.39635 94.3891209,132.623425 95.3261791,136.848278 C95.3714703,137.049832 96.0438096,137.051314 95.9977376,136.848278 C95.0606793,132.623425 94.9419852,128.39635 94.6710192,124.154083 C94.6585251,123.948824 93.9854049,123.948454 94.0002417,124.154083" id="Fill-19" fill="#5EB1AE"></path>
                <path d="M99.0010449,124.151259 C99.5928935,128.38009 98.8513961,132.622109 99.4696173,136.848741 C99.4996697,137.049503 100.02712,137.051335 99.9989078,136.848741 C99.3800733,132.622109 100.119731,128.38009 99.5297221,124.151259 C99.5015096,123.950497 98.9734457,123.948665 99.0010449,124.151259" id="Fill-20" fill="#5EB1AE"></path>
                <path d="M121.322687,88.1941669 C120.067374,84.944144 117.753031,81.7058451 114.130127,81.0382901 C114.102633,81.0336715 114.076879,81.032961 114.051822,81.0315399 C114.031289,81.0279872 114.014236,81.0219476 113.993006,81.0198159 C111.288531,80.7395068 109.714082,83.4910839 108.763983,85.5992645 C107.047541,89.4081294 106.29477,93.6731627 105.622045,97.7676658 C104.300955,105.821669 102.935667,114.646256 105.248618,122.629204 C105.375298,123.068675 105.951969,123.127295 106.190712,122.752484 C108.665145,118.870433 113.770969,117.539941 117.034366,114.441975 C120.444629,111.205097 122.177776,106.473592 122.732523,101.895564 C123.298406,97.2276533 123.028341,92.6084143 121.322687,88.1941669" id="Fill-21" fill="#89A7D7"></path>
                <path d="M94.1111325,100.765784 C92.8736507,94.0054163 89.9534517,87.2472239 86.5826402,81.2560111 C86.4650579,81.0479552 86.2754206,80.9801739 86.0933115,81.0048216 C86.0173132,81.006634 85.93773,81.0251198 85.856713,81.0678908 C82.4686942,82.8298417 80.6472443,86.2058569 79.5069113,89.6902497 C78.2819764,93.4309065 77.6402926,97.9903757 78.2099214,101.906104 C78.9455276,106.974114 81.7782568,111.448041 85.506834,114.911411 C88.5625394,117.7517 92.3660394,119.592669 95.0944502,122.839283 C95.3991604,123.201388 96.004279,122.896915 96,122.467392 C95.9293561,115.228207 95.4149336,107.890792 94.1111325,100.765784" id="Fill-22" fill="#5689DB"></path>
                <path d="M109.306376,77.5720047 C106.256794,75.9510044 102.693713,75.6766868 99.3231034,76.3256561 C99.1145631,76.3651493 98.9980581,76.4868311 98.9527709,76.6309279 C96.9155771,79.4630531 96.6171929,83.4234029 96.3180782,86.7344276 C95.8480408,91.9432608 95.9751372,97.2061748 96.212895,102.42248 C96.5328272,109.454404 97.140187,116.499849 98.0598095,123.484809 C98.0963314,123.763397 98.2778454,124 98.6006994,124 C100.668572,124 102.736444,124 104.803951,124 C104.988387,124 105.182318,123.903935 105.271066,123.744895 C110.998802,113.498366 112.602481,101.172573 113.561181,89.7476523 C113.779948,87.1446588 113.955618,84.5288568 113.99981,81.9166127 C114.029393,80.1917204 110.597061,78.2583325 109.306376,77.5720047" id="Fill-23" fill="#5689DB"></path>
                <path d="M100.459598,77.6814898 C99.5078967,72.1659801 89.8255911,76.5662239 87.2635118,78.4516314 C84.8949928,80.1945267 84.2527735,81.8434935 84.100716,84.5066001 C83.8484794,88.9421121 84.0846158,93.4053349 84.6459763,97.8095374 C85.4162816,103.860547 86.9407922,109.880248 89.3858766,115.490766 C90.1311372,117.199473 90.9465232,118.869312 91.8388323,120.508922 C92.2427686,121.248474 93.1357933,123.604964 94.0077088,123.840685 C95.2907163,124.188328 97.0552988,123.858679 98.388038,123.858679 C98.6535124,123.858679 98.8145145,123.702131 98.8739064,123.508876 C98.8957311,123.457053 98.9121891,123.401632 98.9179136,123.337573 C99.7536931,113.278948 100.416306,103.194051 100.760135,93.1069949 C100.93187,88.0470924 101.326146,82.7025254 100.459598,77.6814898" id="Fill-24" fill="#89A7D7"></path>
                <path d="M93.6261392,124.482902 C97.4717831,125.195551 101.53006,125.148785 105.372546,124.482902 C106.471853,124.293397 106.004832,122.829709 104.910788,123.019214 C101.393217,123.628211 97.6114333,123.671138 94.0878972,123.019214 C92.9942045,122.816448 92.5296395,124.280833 93.6261392,124.482902" id="Fill-25" fill="#5EB1AE"></path>
                <path d="M56.9290567,26.1238276 C56.9282816,26.0991426 56.920531,26.0796335 56.9104552,26.0629113 C56.8926289,26.0266801 56.8596888,25.9996062 56.8085349,26 C55.2460151,26.0262819 53.6834953,26.0521614 52.1205879,26.0780409 C52.0570331,26.0792353 51.997741,26.1333831 52.0000662,26.2018642 C52.0384316,27.1299416 51.9609257,28.0858893 52.1105122,29.0060039 C52.2500229,29.8632114 53.164593,29.9285073 53.8710597,29.9707107 C54.7771041,30.0244604 56.0706783,30.0579046 56.5915183,29.5646022 C57.1945145,28.9940595 56.9608341,27.0331923 56.9290567,26.1238276" id="Fill-26" fill="#749EA0"></path>
                <path d="M52.8552399,29 C52.1613126,29 52.003447,28.0529955 52.0019327,28.0425526 C51.9928469,27.9875901 52.0166971,27.9331772 52.0545546,27.9199862 C52.0935478,27.9084441 52.1298909,27.9419712 52.1385981,27.9958345 C52.1457911,28.0354075 52.3063067,28.9653736 53.0573988,28.7664092 C53.5578744,28.6350488 53.5957319,27.1147851 53.5961105,27.0999452 C53.5968676,27.04883 53.6229893,27.0070585 53.6578181,27.0010126 C53.6911327,26.9938675 53.7244473,27.0251961 53.7346688,27.0741128 C53.7471617,27.1395182 53.761169,27.2269086 53.776312,27.3252916 C53.8334767,27.6935405 53.9216846,28.250311 54.1045362,28.4833522 C54.334331,28.774104 54.8609283,28.8087304 55.1312306,28.6339495 C55.4128901,28.4740085 55.5499341,27.9012989 55.539334,27.381903 C55.5321411,27.3066043 55.5279768,27.2296567 55.5245696,27.1521596 C55.5234339,27.0977467 55.5522055,27.0515781 55.5893059,27.0466315 C55.6248919,27.0416849 55.6604779,27.0790594 55.6657779,27.1329227 C55.6733494,27.2076717 55.6786495,27.2840697 55.6797852,27.3621165 C55.7392214,27.9194366 55.9644733,28.3844196 56.2510543,28.5086349 C56.4781991,28.6081171 56.6989081,28.467413 56.8719167,28.1134543 C56.8946312,28.0678354 56.9385458,28.0573925 56.9711032,28.0898204 C57.0021464,28.1222483 57.0093393,28.1865545 56.9870034,28.232723 C56.7787873,28.6570338 56.4956135,28.8296161 56.2109254,28.7054008 C55.9671233,28.5998727 55.7653431,28.3052736 55.6449563,27.9144899 C55.5790843,28.3256097 55.4261402,28.6867136 55.1861239,28.8235703 C54.8726641,29.0258324 54.2896592,28.9895571 54.0117854,28.6372473 C53.8471054,28.42784 53.7535975,28.0343083 53.6911327,27.6841969 C53.6237464,28.19315 53.4647451,28.8675403 53.0831418,28.969221 C53.0006126,28.9906564 52.9245191,29 52.8552399,29" id="Fill-27" fill="#91B5B7"></path>
                <path d="M54.4040312,26.0133066 C53.9029533,26.0128749 52.2027279,26.0379148 52.0158986,26.4614351 C51.7661413,27.0567813 54.5337956,27.0097235 55.0680963,26.9902959 C57.6012367,26.8987706 57.9025869,25.8721331 54.4040312,26.0133066" id="Fill-28" fill="#597370"></path>
                <path d="M54.412057,25.027903 C54.1334227,25.0286114 51.8014563,24.9528118 52.013624,26.1436448 C52.1180179,26.7252473 52.6114485,26.7769611 52.8731845,26.8456766 C53.4511066,26.9979842 54.0410453,27.0043599 54.622347,26.9986926 C55.1375576,26.9937338 55.6527682,26.9427284 56.160844,26.7705854 C56.3887834,26.6947858 56.8810874,26.5460202 56.9821017,26.0480098 C57.2415846,24.7594165 54.5968118,25.0172769 54.412057,25.027903 C54.2922668,25.0356955 54.2911402,25.3870656 54.412057,25.3806899 C54.9430393,25.34952 55.4728951,25.3473948 56.0027509,25.4430298 C56.0958794,25.4614484 57.0215311,25.6945144 56.7184881,26.0685536 C56.1582154,26.7578341 55.2641072,26.6345712 54.622347,26.6466141 C53.9062343,26.658657 53.1424309,26.6834513 52.4465961,26.3327896 C52.1105076,26.1620634 52.3380715,25.7958167 52.5607536,25.6739706 C52.7950768,25.5457489 53.0451717,25.506078 53.2866297,25.4628652 C53.6598946,25.3948581 54.0369146,25.3813983 54.412057,25.3806899 C54.5325982,25.3799815 54.5325982,25.027903 54.412057,25.027903" id="Fill-29" fill="#91B5B7"></path>
                <path d="M57.4745,20.0717322 C57.3925,22.0236451 57.2175,23.9767535 57.1515,25.9282678 C57.1485,26.0239107 57.5215,26.0239107 57.5235,25.9282678 C57.5915,23.9767535 57.7645,22.0236451 57.8485,20.0717322 C57.8515,19.9760893 57.4775,19.9760893 57.4745,20.0717322" id="Fill-30" fill="#749EA0"></path>
                <path d="M51.0000876,20.0707554 C51.1360866,22.0286178 51.1955299,23.9801646 51.6638708,25.9301324 C51.6863872,26.022894 52.0214311,26.0236835 51.9989147,25.9301324 C51.5314744,23.9801646 51.4738325,22.0286178 51.3369328,20.0707554 C51.3297276,19.9764149 50.993783,19.9764149 51.0000876,20.0707554" id="Fill-31" fill="#749EA0"></path>
                <path d="M55.148,21.0701039 C55.563,23.0214816 55.041,24.9798843 55.478,26.9304815 C55.5,27.0225865 55.871,27.0237573 55.852,26.9304815 C55.415,24.9798843 55.938,23.0214816 55.521,21.0701039 C55.5,20.9772184 55.129,20.9760475 55.148,21.0701039" id="Fill-32" fill="#749EA0"></path>
                <path d="M63.294083,5.083366 C62.7657409,3.69020558 61.7912508,2.30231695 60.2650796,2.01623406 C60.2539175,2.01447679 60.2434318,2.01412534 60.2322696,2.01377388 C60.2238135,2.01201662 60.216372,2.00920499 60.2075776,2.00850209 C59.0690377,1.8883051 58.4060732,3.06743053 58.0055886,3.97136812 C57.2841074,5.60386817 56.9661551,7.43142473 56.6827039,9.18658193 C56.1266256,12.6378522 55.5519437,16.4198399 56.5257572,19.8415881 C56.5792003,20.0292641 56.8217235,20.0545688 56.9221829,19.8939547 C57.9643224,18.2301753 60.1142214,17.6601182 61.4881814,16.3323281 C62.9243788,14.9451424 63.6543162,12.9172575 63.888045,10.9550944 C64.1251562,8.95462283 64.0118434,6.97488704 63.294083,5.083366" id="Fill-33" fill="#5689DB"></path>
                <path d="M51.2647492,10.4710645 C50.7837042,7.57350005 49.647859,4.67736989 48.3369712,2.1100439 C48.2919236,2.0207612 48.2175949,1.99135886 48.1471274,2.00211581 C48.1175247,2.00283294 48.086313,2.01072138 48.0551014,2.02900819 C46.7374566,2.78414626 46.0292425,4.23131492 45.5855228,5.72473849 C45.1093044,7.3275244 44.860255,9.28170409 45.0816322,10.9597887 C45.3676851,13.1316174 46.469101,15.0488649 47.9196366,16.5333243 C49.1072867,17.7506527 50.586138,18.5394959 51.647011,19.931087 C51.7654221,20.0863457 52.0016007,19.955828 52,19.7715255 C51.9716761,16.669579 51.7712139,13.5246047 51.2647492,10.4710645" id="Fill-34" fill="#89A7D7"></path>
                <path d="M59.1748161,0.687485955 C57.988672,-0.0214076345 56.603198,-0.141412936 55.2924726,0.142431938 C55.211167,0.159678209 55.1652687,0.213213508 55.1478929,0.27573124 C54.3554909,1.51494766 54.2400894,3.24747928 54.1233765,4.69616603 C53.9410945,6.97482956 53.9902713,9.27720671 54.0827237,11.5594632 C54.206977,14.6361261 54.4430256,17.7181784 54.8010326,20.774002 C54.81513,20.8961631 54.8852888,21 55.0111814,21 C55.8153858,21 56.6192624,21 57.4237946,21 C57.4952649,21 57.5706693,20.9572436 57.605093,20.8882585 C59.8324737,16.405306 60.456691,11.012972 60.8291232,6.01442785 C60.914363,4.87545538 60.9825548,3.73109346 61,2.58852802 C61.0110773,1.83364437 59.6764193,0.987499208 59.1748161,0.687485955" id="Fill-35" fill="#89A7D7"></path>
                <path d="M54.8095234,1.14893048 C54.4737225,-1.21457934 51.0559574,0.671529266 50.1517436,1.47930209 C49.3157393,2.22619825 49.0886656,2.93286597 49.0356138,4.07457044 C48.9467081,5.97527521 49.0292009,7.8880841 49.2279997,9.77561672 C49.4996719,12.368393 50.038061,14.9487092 50.9011742,17.3528035 C51.1638101,18.0854595 51.451223,18.8006713 51.7669109,19.503423 C51.9088683,19.8209785 52.2242647,20.8302495 52.5317906,20.9313546 C52.985355,21.0808762 53.6079858,20.9395427 54.0781654,20.9395427 C54.1717349,20.9395427 54.2285762,20.8719019 54.2495637,20.789309 C54.2571426,20.7672368 54.2638469,20.7430285 54.2653044,20.7156162 C54.5602961,16.4047651 54.7934912,12.0828779 54.9153356,7.76027871 C54.9759663,5.59150301 55.1150089,3.30097399 54.8095234,1.14893048" id="Fill-36" fill="#5689DB"></path>
                <path d="M52.288896,20.7412453 C54.063819,21.0980287 55.9366844,21.07427 57.7101121,20.7412453 C58.2177671,20.6470158 58.0024436,19.9153278 57.4974055,20.0095573 C55.8738817,20.313991 54.1292385,20.3353336 52.5019765,20.0095573 C51.997686,19.9084821 51.7827364,20.64017 52.288896,20.7412453" id="Fill-37" fill="#749EA0"></path>
            </g>
        </g>
    </g>
</svg>