<?xml version="1.0" encoding="UTF-8"?>
<svg width="237px" height="142px" viewBox="0 0 237 142" version="1.1" xmlns="http://www.w3.org/2000/svg" xmlns:xlink="http://www.w3.org/1999/xlink">
    <title>Group 2</title>
    <g id="Page-1" stroke="none" stroke-width="1" fill="none" fill-rule="evenodd">
        <g id="02-social_Not_Found" transform="translate(-66.000000, -290.000000)">
            <g id="Group-2" transform="translate(66.000000, 290.000000)">
                <g id="Group" transform="translate(33.000000, -0.000000)">
                    <path d="M84.5,0 C131.168061,0 169,37.8319386 169,84.5 C169,106.710958 160.430536,126.92041 146.417529,142.002437 L22.5824713,142.002437 C8.56946391,126.92041 0,106.710958 0,84.5 C0,37.8319386 37.8319386,0 84.5,0 Z" id="Combined-Shape" fill="#9BA9BE" opacity="0.0494413154"></path>
                    <g id="3024050" transform="translate(7.000000, 18.000000)">
                        <polyline id="Fill-1" fill="#F1F0EC" points="76 72.3864118 38.2142623 98 1 41.6132469 38.7860745 16 76 72.3864118"></polyline>
                        <polyline id="Fill-2" fill="#D4D5CF" points="56 69.5241895 55.5537404 72 36 69.4754964 36.4466101 67 56 69.5241895"></polyline>
                        <polyline id="Fill-3" fill="#D4D5CF" points="45.1546392 61 48 61.3704589 44.8453608 79 42 78.6298621 45.1546392 61"></polyline>
                        <path d="M29,38.0004567 C29.0283547,38.0395205 25.0218497,40.533422 20.0522015,43.5703111 C15.0804152,46.6081767 11.0283008,49.0385995 11,48.9995356 C10.9716453,48.9607973 14.9774376,46.4672213 19.9488675,43.4293557 C24.9185158,40.3924666 28.9716992,37.9617183 29,38.0004567" id="Fill-4" fill="#D4D5CF"></path>
                        <path d="M42,34.0002761 C42.0275923,34.0388065 35.557544,38.0995831 27.5508635,43.0690335 C19.541069,48.0407315 13.0277693,52.0382541 13,51.9997238 C12.9724077,51.9615145 19.441072,47.9013801 27.4505205,42.9303243 C35.457547,37.9605528 41.9722307,33.9617458 42,34.0002761" id="Fill-5" fill="#D4D5CF"></path>
                        <path d="M46,38.0002716 C46.0279361,38.0388012 39.5578883,42.0995075 31.5508624,47.0688718 C23.5414145,52.0404836 17.0277693,56.037937 17,55.9997284 C16.9724077,55.9611987 23.4410715,51.9014557 31.4508654,46.9301649 C39.4575453,41.9604796 45.9722285,37.962063 46,38.0002716" id="Fill-6" fill="#D4D5CF"></path>
                        <path d="M49,42.0002716 C49.027592,42.0388012 42.5576204,46.0995075 34.5510348,51.0691928 C26.5413352,56.0404836 20.0281128,60.037937 20,59.9997284 C19.9727518,59.9615198 26.4409934,55.9014557 34.450693,50.9301649 C42.4572786,45.9604796 48.972231,41.962063 49,42.0002716" id="Fill-7" fill="#D4D5CF"></path>
                        <path d="M51,46.0002716 C51.0275923,46.0388019 44.557544,50.0995796 36.5508635,55.0690312 C28.541069,60.0404094 22.0277693,64.0382542 22,63.9997238 C21.9724077,63.9615146 28.441072,59.9017002 36.4505205,54.930322 C44.457547,49.9605492 50.9722307,45.9620623 51,46.0002716" id="Fill-8" fill="#D4D5CF"></path>
                        <polyline id="Fill-9" fill="#F1F0EC" points="197 101.447481 164.755689 123 133 75.5528612 165.243969 54 197 101.447481"></polyline>
                        <polyline id="Fill-10" fill="#D4D5CF" points="181 99.0193013 180.620708 101 164 98.9803995 164.379646 97 181 99.0193013"></polyline>
                        <polyline id="Fill-11" fill="#D4D5CF" points="172.629277 90 175 90.3491049 172.371076 107 170 106.650534 172.629277 90"></polyline>
                        <path d="M157.999833,72.0005474 C158.026232,72.0382873 154.913802,74.0835383 151.048343,76.5683486 C147.181564,79.0541102 144.026566,81.0375184 144.000167,80.9994614 C143.973768,80.9614043 147.086198,78.9164705 150.952977,76.4310259 C154.817776,73.9462157 157.973434,71.9621732 157.999833,72.0005474" id="Fill-12" fill="#D4D5CF"></path>
                        <path d="M170,68.0003697 C170.027174,68.0433381 164.676346,71.8841391 158.049952,76.5778095 C151.421172,81.2729242 146.027381,85.0433147 146,84.9996241 C145.972826,84.9566557 151.322632,81.1169379 157.951071,76.4218232 C164.577805,71.7281528 169.972619,67.9570402 170,68.0003697" id="Fill-13" fill="#D4D5CF"></path>
                        <path d="M171,71.0003697 C171.027173,71.0433382 165.675814,74.8841419 159.049949,79.5778157 C152.421357,84.2729337 147.027378,88.0426048 147,87.9996363 C146.973165,87.9566678 152.322478,84.1165863 158.951412,79.4214682 C165.577277,74.7277944 170.972619,70.9570402 171,71.0003697" id="Fill-14" fill="#D4D5CF"></path>
                        <path d="M174,75.0003697 C174.027173,75.0433382 168.676421,78.8841419 162.049781,83.5778157 C155.421436,88.2729337 150.027381,92.0426048 150,91.9996363 C149.972827,91.9566678 155.322556,88.1165863 161.951242,83.4214682 C168.577542,78.7277944 173.972619,74.9570402 174,75.0003697" id="Fill-15" fill="#D4D5CF"></path>
                        <path d="M177,79.0003697 C177.027174,79.0436983 171.676346,82.8840594 165.049953,87.5776335 C158.421174,92.2726518 153.027384,96.0426039 153,95.9996363 C152.972488,95.9563077 158.322293,92.1166688 164.951072,87.4212893 C171.577465,82.7280763 176.972619,78.957041 177,79.0003697" id="Fill-16" fill="#D4D5CF"></path>
                        <polyline id="Fill-17" fill="#F1F0EC" points="87.244597 70 52 51.3493648 79.7550602 0 115 18.6506352 87.244597 70"></polyline>
                        <polyline id="Fill-18" fill="#D4D5CF" points="82 54.2089235 79.7387462 55 74 38.7910765 76.2609072 38 82 54.2089235"></polyline>
                        <polyline id="Fill-19" fill="#D4D5CF" points="85.1555974 43 86 45.3735827 69.8444026 51 69 48.6260559 85.1555974 43"></polyline>
                        <path d="M94.999836,19.9990051 C94.9721848,20.0477892 91.3675052,18.2964072 86.9498802,16.0881992 C82.5308727,13.879345 78.9725089,12.0497792 79.0001601,12.0009951 C79.0278113,11.952211 82.6317996,13.7032699 87.0508071,15.9121241 C91.4680864,18.1206552 95.0278328,19.9505441 94.999836,19.9990051" id="Fill-20" fill="#D4D5CF"></path>
                        <path d="M103,29.9993668 C102.973542,30.0508315 97.3554924,26.95852 90.4532887,23.0932159 C83.5481554,19.2265484 77.9740497,16.0517571 78,16.0006332 C78.026132,15.9491686 83.6432055,19.0411392 90.5480134,22.9074659 C97.4505426,26.77277 103.02595,29.948243 103,29.9993668" id="Fill-21" fill="#D4D5CF"></path>
                        <path d="M100,33.9993668 C99.9738654,34.0508303 94.3557432,30.9585923 87.4531254,27.0933799 C80.5482289,23.2271452 74.9737262,20.0520885 75,20.000625 C75.0261346,19.9495024 80.6432803,23.0410587 87.5481767,26.9076343 C94.4504691,30.7728467 100.026274,33.9482442 100,33.9993668" id="Fill-22" fill="#D4D5CF"></path>
                        <path d="M99,37.9993668 C98.9738631,38.0508303 93.3560664,34.9585923 86.4534486,31.0933799 C79.5485521,27.2268043 73.9740494,24.0520885 74,24.000625 C74.0264579,23.9495024 79.643278,27.0410587 86.5481744,30.9076343 C93.4507923,34.7725059 99.0265971,37.9482442 99,37.9993668" id="Fill-23" fill="#D4D5CF"></path>
                        <path d="M3.24513304,103 C4.38448166,103.038646 5.45342109,103.63995 6.20467698,104.473129 C6.95593286,105.306309 7.41679298,106.354334 7.71123138,107.424301 C8.28124258,109.49546 7.93088109,111.939322 7.32347554,114 C5.01715366,113.198916 3.59482076,110.807783 2.95204218,109.550808 C1.93565697,107.564147 1.33970555,103.373359 3.24513304,103" id="Fill-31" fill="#548952"></path>
                        <path d="M10.5127681,118 C9.86485453,116.974234 9.84955657,115.547096 10.3618882,114.431327 C10.8739199,113.315559 11.8580885,112.51116 12.9415439,112.14387 C13.442777,111.974453 14.0240994,111.90298 14.4602412,112.223945 C14.8675869,112.524396 15.0436634,113.113384 14.9908704,113.651084 C14.9386774,114.188453 14.6915104,114.680158 14.4005492,115.114951 C13.4019825,116.606282 12.1877445,117.847459 10.5127681,118" id="Fill-32" fill="#548952"></path>
                        <path d="M10.9439291,124 C10.9282944,124.001569 10.8790215,123.853258 10.798953,123.584781 C10.7122516,123.288159 10.5999662,122.904892 10.4649394,122.444781 C10.2090992,121.486611 9.80307139,120.123987 10.1100796,118.617479 C10.4057172,117.117929 11.3002102,115.835626 12.2378171,115.070039 C12.699277,114.682661 13.1408382,114.408491 13.4677451,114.239942 C13.625987,114.151398 13.7657516,114.096691 13.8538743,114.054949 C13.9448397,114.015104 13.9945864,113.996447 13.9988504,114.000558 C14.0343838,114.027121 13.2408054,114.353468 12.3638421,115.13455 C11.4755081,115.902666 10.6236551,117.162833 10.3332291,118.637402 C10.0304849,120.113235 10.4052434,121.463527 10.62176,122.427072 C10.7378356,122.910584 10.8311699,123.302706 10.8851806,123.575294 C10.9391913,123.84725 10.9586162,123.998406 10.9439291,124" id="Fill-33" fill="#132529"></path>
                        <path d="M5.0007165,106 C5.00647722,105.99772 5.04296175,106.057382 5.10671368,106.173687 C5.17661037,106.305746 5.26647754,106.474674 5.37746734,106.684159 C5.60981622,107.129271 5.93664085,107.776494 6.33259408,108.579238 C7.12450053,110.184391 8.18332016,112.415315 9.28860957,114.901643 C10.3931309,117.389311 11.3348159,119.660122 11.9900014,121.311529 C12.3179782,122.1374 12.5764423,122.807414 12.7484957,123.272637 C12.8283776,123.492847 12.8928976,123.67049 12.9428239,123.809252 C12.9854532,123.932262 13.0050396,123.998291 12.9988948,124 C12.9931341,124.001643 12.9620262,123.939635 12.9082596,123.819978 C12.8498843,123.683562 12.7746109,123.508936 12.6816714,123.292748 C12.4819666,122.815123 12.2062203,122.15617 11.8686423,121.349403 C11.182733,119.708052 10.2226137,117.44495 9.11847642,114.959293 C8.01433915,112.474641 6.97510596,110.238354 6.21392333,108.622811 C5.83947678,107.828446 5.53377477,107.179212 5.31256327,106.708962 C5.21424705,106.49445 5.13474916,106.321164 5.07291748,106.186424 C5.02030294,106.066431 4.99533983,106.001742 5.0007165,106" id="Fill-34" fill="#132529"></path>
                        <path d="M7.97625701,119.293013 C6.69793434,116.86791 4.31192196,115.214223 1.79611456,115.010866 C1.15537035,114.958615 0.38483113,115.079005 0.0989655104,115.72085 C-0.187216683,116.363402 0.195520343,117.123872 0.632074817,117.650976 C2.44793882,119.84483 5.5196488,120.609537 8,119.485425" id="Fill-35" fill="#548952"></path>
                        <path d="M2,117.005023 C2.00102004,116.994717 2.15195138,117.000514 2.42496939,117.02016 C2.56181381,117.029178 2.72951529,117.040772 2.92103038,117.075554 C3.11221007,117.10937 3.33458224,117.12966 3.57137674,117.192784 C3.80984825,117.249144 4.07313958,117.305183 4.34515138,117.399224 C4.62286504,117.478128 4.90795756,117.592137 5.20747241,117.713876 C5.79912324,117.971845 6.4269976,118.309685 7.02435028,118.74833 C7.61767813,119.19245 8.11910557,119.688743 8.52628477,120.175374 C8.72249551,120.42497 8.90931496,120.66104 9.05521525,120.901618 C9.21654408,121.132534 9.33628294,121.364417 9.44897833,121.574078 C9.569388,121.779873 9.64049343,121.983737 9.71897772,122.154428 C9.79880363,122.325442 9.84810787,122.479708 9.88768542,122.605633 C9.96918834,122.857162 10.0087659,122.996613 9.99836839,122.999834 C9.9644927,123.011106 9.80148685,122.448146 9.34902825,121.623675 C9.23130181,121.420133 9.10787352,121.19437 8.94419687,120.969572 C8.79594876,120.736079 8.60778769,120.506451 8.41191236,120.263297 C8.00506856,119.789547 7.51001378,119.305492 6.92741883,118.869424 C6.34046363,118.438509 5.7260054,118.103245 5.14709988,117.842377 C4.85395768,117.719029 4.57490241,117.601799 4.30322601,117.519352 C4.03658065,117.421124 3.77865577,117.359933 3.5448799,117.297775 C2.60340377,117.069113 1.99665981,117.038195 2,117.005023" id="Fill-36" fill="#132529"></path>
                        <path d="M168.440353,41.0079821 C168.207658,41.0079821 168.056701,41.0052648 168,40.9984715 C168,40.9964335 168,40.9943956 168.000736,40.9920179 L169,41.0032268 L168.998527,41.0045854 C168.779087,41.0066234 168.592047,41.0079821 168.440353,41.0079821" id="Fill-83" fill="#051317"></path>
                        <path d="M173,69.0004 C173.002868,69.0056752 172.922649,69.070384 172.76974,69.1874929 C172.730449,69.2173856 172.687556,69.2500917 172.641061,69.2849079 C172.596858,69.3253509 172.553965,69.3756409 172.504524,69.4266343 C172.405313,69.5289727 172.290058,69.6446749 172.190193,69.8046886 C171.734741,70.4039486 171.402402,71.474106 171.086762,72.8097807 C170.91257,73.4730462 170.736414,74.2171977 170.372314,74.9455237 C170.275068,75.123473 170.187645,75.3119726 170.059293,75.4776131 C169.998064,75.5616643 169.942402,75.6523973 169.875279,75.7332833 L169.657867,75.9664461 C169.363182,76.2776815 168.990242,76.512251 168.597001,76.6975856 C167.807246,77.0693097 166.915988,77.2455005 166.101347,77.6843952 C165.281796,78.1130912 164.667541,78.9441073 164.291,79.9010243 C163.89383,80.8540728 163.652843,81.8545979 163.321486,82.7886558 C162.996023,83.7153284 162.553013,84.6173836 161.849044,85.1871026 C161.150641,85.7775707 160.287869,85.9126152 159.540351,85.9643119 C158.781046,86.0117885 158.077732,85.9885777 157.446778,86.0909161 C156.818445,86.1844626 156.26149,86.3986347 155.867922,86.7309708 C155.472717,87.064362 155.242208,87.4825076 155.133829,87.8405163 C155.022176,88.202745 155.042149,88.5083536 155.079149,88.7028317 C155.115821,88.900475 155.167554,88.9947248 155.156094,89 C155.156094,89 155.09421,88.9110254 155.046078,88.7116237 C154.996637,88.5146838 154.964549,88.1985249 155.070636,87.8197672 C155.17312,87.444878 155.402647,87.0066867 155.80833,86.6507882 C156.215323,86.2948896 156.787994,86.067002 157.42877,85.9629052 C158.071183,85.8503681 158.782356,85.8665453 159.530856,85.8127385 C160.27117,85.7550632 161.096942,85.6157986 161.753435,85.0527614 C162.418441,84.50977 162.845734,83.6421793 163.165631,82.7246503 C163.491094,81.8014945 163.730443,80.7995626 164.135799,79.8257651 C164.515942,78.8523192 165.167524,77.9681997 166.026039,77.5243815 C166.872767,77.0728264 167.76468,76.9022624 168.534463,76.5424954 C168.91788,76.3641944 169.274122,76.142637 169.55571,75.8486339 L169.764281,75.6284832 C169.829112,75.5514656 169.88281,75.464601 169.942402,75.3840667 C170.066497,75.2268664 170.15261,75.0443453 170.248219,74.8734296 C170.606753,74.1704245 170.789785,73.4343615 170.970525,72.7749645 C171.300244,71.4466751 171.655831,70.3589338 172.138132,69.7603771 C172.243891,69.6010668 172.365694,69.4864196 172.470471,69.3865429 C172.522532,69.3369563 172.568044,69.2873696 172.614539,69.2490367 C172.663326,69.2159789 172.708511,69.1853829 172.749767,69.1572486 C172.911516,69.04858 172.996975,68.9947732 173,69.0004" id="Fill-106" fill="#FAF9F6"></path>
                        <path d="M173.979933,60 C173.986295,59.999673 173.993365,60.0970044 173.999727,60.2840269 C174.002909,60.4707172 173.978872,60.747763 173.894038,61.0955651 C173.717299,61.7868508 173.180013,62.7362475 172.173662,63.5952887 C171.676673,64.0268024 171.076468,64.4440321 170.390368,64.819738 C169.707803,65.2000946 168.955249,65.5621809 168.183961,65.9717701 C167.415501,66.3826881 166.623004,66.8467564 165.926653,67.4636318 C165.221112,68.0728667 164.692663,68.8734426 164.216882,69.7215216 C163.736153,70.5679397 163.310566,71.4299706 162.734397,72.1760675 C162.448434,72.5487838 162.125355,72.8892777 161.76799,73.1806076 C161.408149,73.4699444 161.016496,73.7051343 160.61848,73.9001294 C159.819621,74.2897873 159.005916,74.5306245 158.251948,74.7525268 C157.496567,74.9721039 156.791379,75.1664346 156.175267,75.4092649 C155.558096,75.6484411 155.023284,75.9191753 154.591334,76.2065189 C154.159031,76.4938625 153.830297,76.7954903 153.597002,77.0682176 C153.12617,77.6159976 153.027196,78.0129637 153.000685,77.9996761 C152.994676,77.9980152 153.028257,77.9056666 153.098599,77.7306029 C153.180605,77.5608542 153.306797,77.3080582 153.540799,77.026694 C153.769499,76.7426722 154.097173,76.4280891 154.531243,76.1281222 C154.96496,75.8281554 155.50366,75.5461268 156.125074,75.2966527 C156.746487,75.0435246 157.454503,74.8408892 158.205996,74.6156649 C158.956429,74.3884475 159.76059,74.1439563 160.539655,73.758949 C160.927773,73.5662793 161.307055,73.33574 161.653109,73.0553723 C161.99775,72.7723471 162.309517,72.4421511 162.588058,72.0770751 C163.14938,71.3472555 163.571079,70.4922005 164.054282,69.6401353 C164.531831,68.7884022 165.075833,67.964573 165.802936,67.3403896 C166.518728,66.7098945 167.325364,66.2425043 168.100894,65.832915 C168.878898,65.4249867 169.632866,65.0682155 170.312956,64.6958315 C170.995875,64.3290946 171.590424,63.9244882 172.086,63.5052654 C173.087755,62.6701418 173.629636,61.7516387 173.82511,61.0782912 C174.014927,60.3983 173.951655,59.9983442 173.979933,60" id="Fill-107" fill="#FAF9F6"></path>
                        <path d="M153.131716,68 C153.128668,68.0009974 153.118849,67.9789812 153.101919,67.9335727 C153.087358,67.8874763 153.056207,67.8214277 153.036567,67.7285469 C152.995257,67.5448492 152.969185,67.2545105 153.070428,66.9039713 C153.258693,66.2035808 154.007692,65.3322208 155.214487,64.8953368 C155.815175,64.6858389 156.496452,64.5592457 157.206172,64.370732 C157.907766,64.1784342 158.67234,63.9094238 159.24357,63.3132663 C159.526984,63.0191436 159.766717,62.6689484 159.965818,62.2840088 C160.160517,61.8956293 160.320678,61.4786974 160.472035,61.0483495 C160.775427,60.1904056 161.03006,59.257813 161.545419,58.4105333 C162.057054,57.5563734 162.891043,56.962968 163.754152,56.6657492 C164.615229,56.3444503 165.483078,56.202033 166.288624,56.0131752 C167.09654,55.8346376 167.851633,55.6034675 168.492616,55.2508642 C169.124118,54.8862209 169.627626,54.4008324 169.983841,53.8862037 C170.714554,52.8541942 170.905529,51.7974165 170.931601,51.0994341 C170.947516,50.3897556 170.836453,50.00344 170.859478,50 C170.859478,50 170.994921,50.3797795 171,51.1008101 C170.994921,51.8094566 170.820877,52.8920346 170.085423,53.9594764 C169.7265,54.4916493 169.214526,54.9976779 168.563724,55.3805534 C167.906826,55.7500128 167.135818,55.990127 166.324855,56.1741687 C165.515246,56.3681865 164.652137,56.5143878 163.814424,56.8301827 C162.971293,57.1249934 162.188095,57.6867506 161.694745,58.5054781 C161.197331,59.3217976 160.941683,60.2437261 160.634567,61.107174 C160.481178,61.540618 160.316954,61.9647739 160.115482,62.3631296 C159.908932,62.7590772 159.657009,63.1237206 159.358019,63.4305714 C158.751574,64.0556251 157.9528,64.3263556 157.24308,64.5141813 C156.523202,64.698911 155.845989,64.8172481 155.253765,65.0157379 C154.079815,65.4226937 153.334541,66.2579333 153.136118,66.9246115 C153.028779,67.2589825 153.041985,67.5396891 153.071105,67.7216668 C153.109029,67.9026125 153.139504,67.9975573 153.131716,68" id="Fill-108" fill="#FAF9F6"></path>
                        <path d="M171.972569,87 C171.979019,86.9993667 171.98726,87.0679175 171.997651,87.1999176 C172.005892,87.3315989 171.994426,87.5289613 171.931364,87.7754253 C171.805238,88.266759 171.378849,88.9388755 170.577309,89.4981223 C170.182451,89.781253 169.704824,90.0411082 169.156251,90.2486736 C168.609469,90.4575144 168.004284,90.6226739 167.372224,90.7977175 C166.74124,90.97308 166.078724,91.1567323 165.434483,91.4274282 C164.785941,91.6917472 164.186846,92.07882 163.67088,92.5720668 C163.148105,93.0592555 162.697351,93.5917197 162.196791,94.0613723 C161.698382,94.5342132 161.132252,94.9235179 160.545698,95.2114311 C159.366499,95.7907649 158.143945,95.9897216 157.13781,95.9996057 C156.124508,96.0098086 155.320102,95.8200983 154.792669,95.6530257 C154.526445,95.5704459 154.328657,95.4878661 154.197516,95.426011 C154.065299,95.3670255 153.99722,95.3341849 154,95.3287646 C154.002953,95.3236631 154.076407,95.3469385 154.213281,95.3957211 C154.348364,95.4473734 154.549018,95.5197502 154.815959,95.5918083 C155.344825,95.738475 156.14099,95.906823 157.13566,95.8822723 C158.122804,95.8574027 159.316694,95.6501561 160.461495,95.0778368 C161.032642,94.7924743 161.577273,94.4143291 162.063858,93.949778 C162.553668,93.4871399 163.002989,92.9549946 163.535797,92.4572841 C164.060721,91.9541532 164.692064,91.5476312 165.356013,91.2804426 C166.017812,91.0049641 166.688927,90.8232248 167.322061,90.6516884 C167.955195,90.4804709 168.557515,90.3210505 169.096413,90.1220938 C169.634237,89.9247313 170.105056,89.6763543 170.495256,89.4059773 C171.288197,88.8709624 171.716377,88.2316865 171.861493,87.7591644 C172.002667,87.2818597 171.946771,86.9993667 171.972569,87" id="Fill-109" fill="#FAF9F6"></path>
                        <path d="M64.6414354,54.1688528 L51,124 L131.526086,123.604649 C135.139924,123.586647 138.34271,120.391909 139.505251,115.644975 L153.784242,57.3486464 C154.667064,53.7453106 152.730178,49.9972843 149.987222,50 L68.4851888,50.0852534 C66.6857746,50.0872913 65.1121827,51.7590434 64.6414354,54.1688528" id="Fill-116" fill="#BCC5D4"></path>
                        <path d="M133,124 C133.388165,123.693862 133.718529,123.354042 134,123 C133.676948,123.466317 133.342472,123.803144 133,124" id="Fill-117" fill="#6D232C"></path>
                        <path d="M130.773845,123 C121.783163,123 120.916224,113.003781 120.915521,112.996617 L113,51.0354742 L147.869306,51 C147.87036,51 147.871062,51 147.872467,51 C150.225739,51 152.001754,53.6172453 152,56.5841162 C151.999296,57.174898 151.928719,57.7793238 151.777733,58.3799974 L137.079787,116.925044 C136.462851,119.382996 135.28762,121.426515 133.78373,122.83218 C133.859574,122.715524 133.882749,122.646281 133.882749,122.646281 C132.751759,122.889484 131.717331,123 130.773845,123" id="Fill-118" fill="#3A71CB"></path>
                        <path d="M124.388146,111.576114 L115.852519,43.8374 C115.502816,41.0620392 113.257749,38.9916174 110.606971,39 L91.8903373,39.0602278 C90.5048433,39.0649364 89.1767225,39.6447621 88.1928407,40.6749282 L79.305462,49.9790462 L27.2505709,50.2467615 C24.0697745,50.2629052 21.6259502,53.2272811 22.0473699,56.5579159 L29.9723819,119.165643 C30.3231096,121.937304 32.5640787,124.005036 35.2110996,124 L125.931074,123.82342 C136.035243,124.029587 137,121.090772 137,121.090772 C125.42018,123.617925 124.38917,111.58385 124.388146,111.576114" id="Fill-119" fill="#5689DB"></path>
                        <path d="M81.0118776,101 L71.1570765,92.1015524 L74.1448654,88.8803297 L84,97.7791121 L81.0118776,101 M67.8548011,89.1196703 L58,80.2212226 L60.9877889,77 L70.84259,85.8984476 L67.8548011,89.1196703" id="Fill-120" fill="#FFFFFF" opacity="0.509583939"></path>
                        <polyline id="Fill-121" fill="#FFFFFF" opacity="0.472133903" points="62.2850033 102 59 99.0683868 79.7146649 77 83 79.9316132 62.2850033 102"></polyline>
                    </g>
                </g>
                <ellipse id="Oval" fill="#D8D8D8" cx="115" cy="141.5" rx="115" ry="1"></ellipse>
            </g>
        </g>
    </g>
</svg>