<?xml version="1.0" encoding="UTF-8"?>
<svg width="153px" height="124px" viewBox="0 0 153 124" version="1.1" xmlns="http://www.w3.org/2000/svg" xmlns:xlink="http://www.w3.org/1999/xlink">
    <title>Group 3</title>
    <defs>
        <filter id="filter-1">
            <feColorMatrix in="SourceGraphic" type="matrix" values="0 0 0 0 0.337255 0 0 0 0 0.537255 0 0 0 0 0.858824 0 0 0 1.000000 0"></feColorMatrix>
        </filter>
        <filter id="filter-2">
            <feColorMatrix in="SourceGraphic" type="matrix" values="0 0 0 0 0.904580 0 0 0 0 0.440242 0 0 0 0 0.494123 0 0 0 1.000000 0"></feColorMatrix>
        </filter>
    </defs>
    <g id="Page-1" stroke="none" stroke-width="1" fill="none" fill-rule="evenodd">
        <g id="02-social_connection" transform="translate(-126.000000, -305.000000)">
            <g id="Group-3" transform="translate(126.000000, 305.000000)">
                <g id="Group-2">
                    <path d="M82.1229198,0.0292487991 C74.5263953,-0.0423247114 28.5207437,-0.754463158 27.1682286,12.0679852 C25.8721732,24.3491364 43.6986889,19.8529532 43.8723834,25.302251 C44.0572259,31.0266932 40.6577776,32.6833142 31.1689546,32.3204113 C27.0567477,32.1632374 14.0785725,33.6173665 13.8717934,41.8105553 C13.6646547,49.9580665 28.1568125,48.9297818 27.4397386,55.6900617 C27.0236631,63.3736039 16.0172614,65.0446116 11.6813734,67.0760045 C6.97040623,69.5404351 -1.69957151,73.6039403 0.292340501,82.3258379 C2.91429943,92.4400022 19.5630733,90.6211718 25.8344136,91.8670544 C30.0224994,92.5471826 43.340152,93.7214917 41.4460554,102.684365 C40.4506389,108.070722 29.5186776,108.38507 31.6084051,115.29605 C33.7233058,121.757088 52.7868999,123.033542 56.6488141,123.242867 C72.6794084,124.110381 107.880043,125.528544 123.558214,118.914288 C129.322496,116.507045 134.41034,113.608138 133.820571,104.963568 C133.534316,97.2426207 129.370325,96.1111118 136.383193,90.1446145 C140.816177,86.3044619 149.30311,86.6134149 148.801446,75.4047873 C148.530296,69.3577249 133.065737,66.8468973 133.408451,60.5189358 C133.946436,50.5756128 152.930555,59.0187694 153,41.4307481 C153.042396,30.4526664 118.505612,36.594321 118.858035,25.734929 C118.392333,21.327943 125.994611,19.4573207 125.66808,14.5798917 C125.846449,6.76974709 116.901006,0.98991637 82.1229198,0.0292487991" id="Fill-4" fill="#DFE9F9" opacity="0.491710574"></path>
                    <g filter="url(#filter-1)" id="noun_wifi_1715082">
                        <g transform="translate(25.650000, 35.000000)" id="Group" fill="#000000" fill-rule="nonzero">
                            <path d="M98.65,26.7 C97.75,26.7 96.85,26.4 96.15,25.7 C84.15,13.6 68.05,7 51.05,7 C34.05,7 17.95,13.6 5.95,25.7 C4.55,27.1 2.35,27.1 1.05,25.7 C-0.35,24.3 -0.35,22.1 1.05,20.8 C14.35,7.3 32.15,0 51.05,0 C69.95,0 87.75,7.4 101.15,20.7 C102.55,22.1 102.55,24.3 101.15,25.6 C100.45,26.3 99.55,26.7 98.65,26.7 Z" id="Path"></path>
                            <path d="M85.45,39.9 C84.55,39.9 83.65,39.6 82.95,38.9 C65.35,21.3 36.75,21.3 19.15,38.9 C17.75,40.3 15.55,40.3 14.25,38.9 C12.85,37.5 12.85,35.3 14.25,34 C34.55,13.7 67.65,13.7 87.95,34 C89.35,35.4 89.35,37.6 87.95,38.9 C87.25,39.6 86.35,39.9 85.45,39.9 Z" id="Path"></path>
                            <path d="M72.25,53.1 C71.35,53.1 70.45,52.8 69.75,52.1 C59.45,41.8 42.65,41.8 32.35,52.1 C30.95,53.5 28.75,53.5 27.45,52.1 C26.05,50.7 26.05,48.5 27.45,47.2 C40.45,34.2 61.65,34.2 74.75,47.2 C76.15,48.6 76.15,50.8 74.75,52.1 C73.95,52.8 73.05,53.1 72.25,53.1 Z" id="Path"></path>
                            <path d="M58.95,62.9 C54.55,58.5 47.45,58.5 43.05,62.9 L46.95,66.8 C49.15,69 52.75,69 54.95,66.8 L58.95,62.9 Z" id="Path"></path>
                        </g>
                    </g>
                </g>
                <g filter="url(#filter-2)" id="noun_Error_4147435">
                    <g transform="translate(85.000000, 54.000000)">
                        <path d="M34,16.9997718 C34,7.62561191 26.3742857,0 17,0 C7.62571429,0 0,7.62561191 0,16.9997718 C0,26.3739317 7.62571429,33.9997729 17,33.9997729 C26.3742857,34.0481143 34,26.3739317 34,16.9997718 Z M18.4571429,18.0683289 C18.4571429,18.8940321 17.7771429,19.5254522 17,19.5254522 C16.1742857,19.5254522 15.5428571,18.8940321 15.5428571,18.0683289 L15.5428571,10.6370001 C15.5428571,9.81129686 16.1742857,9.17987676 17,9.17987676 C17.7771429,9.17987676 18.4571429,9.81129686 18.4571429,10.6370001 L18.4571429,18.0683289 Z M18.4571429,23.4111143 C18.4571429,23.7996805 18.3114286,24.1396759 18.02,24.4311006 C17.7285714,24.7225252 17.3885714,24.8682376 17,24.8682376 C16.6114286,24.8682376 16.2228571,24.7225252 15.98,24.4311006 C15.6885714,24.1396759 15.5428571,23.7996805 15.5428571,23.4111143 C15.5428571,23.3139727 15.5428571,23.2168312 15.5914286,23.1196896 C15.5914286,23.0225481 15.64,22.9254065 15.6885714,22.828265 C15.7371429,22.7311234 15.7857143,22.6825526 15.8342857,22.5854111 C15.8828571,22.4882695 15.9314286,22.4396988 16.0285714,22.3425572 C16.5628571,21.8082787 17.5342857,21.8082787 18.0685714,22.3425572 C18.1171429,22.391128 18.2142857,22.4882695 18.2628571,22.5854111 C18.3114286,22.6825526 18.36,22.7311234 18.4085714,22.828265 C18.4571429,22.9254065 18.4571429,23.0225481 18.5057143,23.1196896 C18.4571429,23.2168312 18.4571429,23.3139727 18.4571429,23.4111143 Z" id="Shape" fill="#000000" fill-rule="nonzero"></path>
                    </g>
                </g>
            </g>
        </g>
    </g>
</svg>