<svg width="92" height="96" viewBox="0 0 92 96" fill="none" xmlns="http://www.w3.org/2000/svg">
<rect width="92" height="96" rx="19" fill="#9E9E9E"/>
<rect x="1" y="1" width="90" height="91" rx="18" fill="#111C20"/>
<mask id="mask0_198_366" style="mask-type:luminance" maskUnits="userSpaceOnUse" x="32" y="18" width="28" height="46">
<path d="M32.2358 18.8581H59.3232V64.0001H32.2358V18.8581Z" fill="white"/>
</mask>
<g mask="url(#mask0_198_366)">
<path d="M53.5861 47.4329H46.9627C42.8511 47.4329 39.5049 44.0857 39.5049 39.974V22.5336C39.5049 20.5243 37.8709 18.8885 35.8589 18.8885C33.8497 18.8885 32.2139 20.5243 32.2139 22.5336V39.975C32.2139 42.223 32.7395 44.4739 33.7316 46.4914C34.1973 47.4375 34.4444 48.4942 34.4444 49.5509V63.469C34.4444 63.7493 34.6694 63.9743 34.9497 63.9743H52.0527V55.1803C52.0527 54.9 52.2814 54.675 52.558 54.675C52.8374 54.675 53.0633 54.9 53.0633 55.1803V63.9743H58.8402C59.1196 63.9743 59.3455 63.7493 59.3455 63.469V53.1941C59.3446 50.0175 56.76 47.4329 53.5861 47.4329Z" fill="#5CE1E6"/>
</g>
<path d="M47.14 32.6968C43.3244 32.6968 40.2188 35.8015 40.2188 39.6198C40.2188 43.4355 43.3234 46.542 47.14 46.542C50.9574 46.542 54.064 43.4364 54.064 39.6198C54.064 35.8033 50.9574 32.6968 47.14 32.6968Z" fill="#5CE1E6"/>
<mask id="mask1_198_366" style="mask-type:luminance" maskUnits="userSpaceOnUse" x="24" y="17" width="18" height="18">
<path d="M24 17H41.7291V34.7291H24V17Z" fill="white"/>
</mask>
<g mask="url(#mask1_198_366)">
<mask id="mask2_198_366" style="mask-type:luminance" maskUnits="userSpaceOnUse" x="24" y="17" width="18" height="18">
<path d="M32.8649 17L34.1124 17.9848L35.6037 17.4346L36.4869 18.7563L38.0751 18.6929L38.5058 20.2233L40.0361 20.6548L39.9728 22.243L41.2953 23.1254L40.7443 24.6167L41.7291 25.8649L40.7443 27.1131L41.2953 28.6037L39.9728 29.4869L40.0361 31.0751L38.5058 31.5058L38.0751 33.0361L36.4869 32.9728L35.6037 34.2953L34.1124 33.7443L32.8649 34.7291L31.6167 33.7443L30.1254 34.2953L29.243 32.9728L27.654 33.0361L27.2233 31.5058L25.6929 31.0751L25.7563 29.4869L24.4338 28.6037L24.9848 27.1131L24 25.8649L24.9848 24.6167L24.4338 23.1254L25.7563 22.243L25.6929 20.6548L27.2233 20.2233L27.654 18.6929L29.243 18.7563L30.1254 17.4346L31.6167 17.9848L32.8649 17Z" fill="white"/>
</mask>
<g mask="url(#mask2_198_366)">
<path d="M24 17H41.7291V34.7291H24V17Z" fill="#B69818"/>
</g>
</g>
<mask id="mask3_198_366" style="mask-type:luminance" maskUnits="userSpaceOnUse" x="28" y="21" width="10" height="10">
<path d="M28.3545 21.3545H37.2877V30.2884H28.3545V21.3545Z" fill="white"/>
</mask>
<g mask="url(#mask3_198_366)">
<path d="M36.4507 24.9837H33.6584V22.1922C33.6584 21.7294 33.2835 21.3545 32.8214 21.3545C32.3587 21.3545 31.9837 21.7294 31.9837 22.1922V24.9837H29.1915C28.7294 24.9837 28.3545 25.3587 28.3545 25.8214C28.3545 26.2835 28.7294 26.6584 29.1915 26.6584H31.9837V29.4507C31.9837 29.9134 32.3587 30.2884 32.8214 30.2884C33.2835 30.2884 33.6584 29.9134 33.6584 29.4507V26.6584H36.4507C36.9127 26.6584 37.2877 26.2835 37.2877 25.8214C37.2877 25.3587 36.9127 24.9837 36.4507 24.9837Z" fill="white"/>
</g>
<path d="M47.4001 54.2272L35.0015 63.4098L46.3653 53.0529L44.6029 52.2494L48.9878 51.9021L47.8537 55.8518L47.4001 54.2272Z" fill="#737373"/>
<path d="M29.1186 81V70.8182H32.7479C33.54 70.8182 34.1963 70.9624 34.7166 71.2507C35.237 71.5391 35.6264 71.9335 35.8849 72.4339C36.1435 72.9311 36.2727 73.4912 36.2727 74.1143C36.2727 74.7408 36.1418 75.3042 35.88 75.8047C35.6214 76.3018 35.2304 76.6963 34.7067 76.9879C34.1863 77.2763 33.5317 77.4205 32.7429 77.4205H30.2472V76.1179H32.6037C33.1042 76.1179 33.5102 76.0317 33.8217 75.8594C34.1333 75.6837 34.362 75.4451 34.5078 75.1435C34.6536 74.8419 34.7266 74.4988 34.7266 74.1143C34.7266 73.7299 34.6536 73.3885 34.5078 73.0902C34.362 72.7919 34.1316 72.5582 33.8168 72.3892C33.5052 72.2202 33.0942 72.1357 32.5838 72.1357H30.6548V81H29.1186ZM38.0737 81V70.8182H41.8024C42.5249 70.8182 43.1232 70.9375 43.5971 71.1761C44.0711 71.4115 44.4257 71.7313 44.661 72.1357C44.8964 72.5367 45.014 72.9891 45.014 73.4929C45.014 73.9171 44.9361 74.2751 44.7804 74.5668C44.6246 74.8551 44.4158 75.0871 44.1539 75.2628C43.8954 75.4351 43.6104 75.5611 43.2988 75.6406V75.7401C43.6369 75.7566 43.9667 75.866 44.2882 76.0682C44.613 76.267 44.8815 76.5504 45.0936 76.9183C45.3057 77.2862 45.4118 77.7337 45.4118 78.2607C45.4118 78.781 45.2891 79.2483 45.0439 79.6626C44.8019 80.0736 44.4274 80.4001 43.9203 80.642C43.4132 80.8807 42.7652 81 41.9764 81H38.0737ZM39.6099 79.6825H41.8272C42.563 79.6825 43.09 79.54 43.4082 79.255C43.7264 78.9699 43.8855 78.6136 43.8855 78.1861C43.8855 77.8646 43.8043 77.5696 43.6419 77.3011C43.4795 77.0327 43.2475 76.8189 42.9458 76.6598C42.6475 76.5007 42.2929 76.4212 41.8819 76.4212H39.6099V79.6825ZM39.6099 75.223H41.6681C42.0128 75.223 42.3227 75.1567 42.5978 75.0241C42.8762 74.8916 43.0967 74.706 43.2591 74.4673C43.4248 74.2254 43.5076 73.9403 43.5076 73.6122C43.5076 73.1913 43.3601 72.8383 43.0652 72.5533C42.7702 72.2682 42.3178 72.1257 41.7079 72.1257H39.6099V75.223ZM48.7701 70.8182V81H47.2338V70.8182H48.7701ZM56.5605 73.4929C56.5075 73.0223 56.2888 72.6577 55.9043 72.3991C55.5198 72.1373 55.0359 72.0064 54.4526 72.0064C54.035 72.0064 53.6737 72.0727 53.3688 72.2053C53.0639 72.3345 52.8269 72.5135 52.6578 72.7422C52.4921 72.9676 52.4093 73.2244 52.4093 73.5128C52.4093 73.7547 52.4656 73.9635 52.5783 74.1392C52.6943 74.3149 52.8451 74.4624 53.0307 74.5817C53.2196 74.6977 53.4218 74.7955 53.6373 74.875C53.8527 74.9512 54.0598 75.0142 54.2587 75.0639L55.253 75.3224C55.5778 75.402 55.9109 75.5097 56.2523 75.6456C56.5937 75.7815 56.9102 75.9605 57.2019 76.1825C57.4935 76.4046 57.7289 76.6797 57.9078 77.0078C58.0901 77.3359 58.1813 77.7287 58.1813 78.1861C58.1813 78.7628 58.0321 79.2749 57.7338 79.7223C57.4389 80.1697 57.0096 80.5227 56.4462 80.7812C55.8861 81.0398 55.2083 81.169 54.4128 81.169C53.6505 81.169 52.9909 81.0481 52.4341 80.8061C51.8773 80.5642 51.4415 80.2211 51.1266 79.777C50.8117 79.3295 50.6377 78.7992 50.6046 78.1861H52.1458C52.1756 78.554 52.2949 78.8606 52.5037 79.1058C52.7158 79.3478 52.986 79.5284 53.3141 79.6477C53.6455 79.7637 54.0085 79.8217 54.4029 79.8217C54.8371 79.8217 55.2232 79.7538 55.5613 79.6179C55.9026 79.4787 56.1711 79.2865 56.3667 79.0412C56.5622 78.7926 56.66 78.5026 56.66 78.1712C56.66 77.8696 56.5738 77.6226 56.4015 77.4304C56.2324 77.2382 56.0021 77.0791 55.7104 76.9531C55.4221 76.8272 55.0956 76.7161 54.731 76.62L53.5279 76.2919C52.7125 76.0698 52.0662 75.7434 51.589 75.3125C51.115 74.8816 50.878 74.3116 50.878 73.6023C50.878 73.0156 51.0371 72.5036 51.3553 72.0661C51.6735 71.6286 52.1043 71.2888 52.6479 71.0469C53.1915 70.8016 53.8046 70.679 54.4874 70.679C55.1768 70.679 55.785 70.8 56.312 71.0419C56.8423 71.2839 57.2599 71.617 57.5648 72.0412C57.8697 72.4621 58.0288 72.946 58.0421 73.4929H56.5605ZM62.8906 79.2898V72.5682H64.228V79.2898H62.8906ZM60.201 76.5952V75.2628H66.9226V76.5952H60.201Z" fill="white"/>
</svg>
